<svg width="14" height="14" viewBox="0 0 14 14" fill="none" xmlns="http://www.w3.org/2000/svg">
<path d="M7.65622 1.96875C7.65622 1.60631 7.36241 1.3125 6.99997 1.3125C6.63754 1.3125 6.34372 1.60631 6.34372 1.96875V6.34375H1.96875C1.60631 6.34375 1.3125 6.63757 1.3125 7C1.3125 7.36244 1.60631 7.65625 1.96875 7.65625H6.34372V12.0312C6.34372 12.3937 6.63754 12.6875 6.99997 12.6875C7.36241 12.6875 7.65622 12.3937 7.65622 12.0312V7.65625H12.0312C12.3937 7.65625 12.6875 7.36244 12.6875 7C12.6875 6.63757 12.3937 6.34375 12.0312 6.34375H7.65622V1.96875Z" fill="white"/>
</svg>
