<svg width="20" height="19" viewBox="0 0 20 19" fill="none" xmlns="http://www.w3.org/2000/svg">
<g clip-path="url(#clip0_579_64)">
<path fill-rule="evenodd" clip-rule="evenodd" d="M15.7912 6.49591L13.089 8.77259C13.0292 8.84478 12.92 8.85722 12.8454 8.79997C12.8316 8.79001 12.8194 8.77757 12.8099 8.76429L10.1969 6.14327C10.0877 5.99226 9.8719 5.95492 9.71503 6.05864C9.6795 6.08187 9.64917 6.11091 9.62577 6.14493L7.01017 8.81076C6.95643 8.88626 6.84897 8.90535 6.76923 8.8539C6.7545 8.84395 6.7415 8.83233 6.7311 8.81905L4.0297 6.50587C3.91183 6.36149 3.6943 6.33577 3.5435 6.44862C3.45943 6.51168 3.41003 6.60793 3.41003 6.70999L4.41003 14H15.41L16.41 6.70169C16.41 6.51832 16.2549 6.36979 16.0634 6.36979C15.9576 6.36979 15.8571 6.41626 15.7912 6.49591Z" fill="black"/>
</g>
<defs>
<clipPath id="clip0_579_64">
<rect width="19" height="19" fill="white" transform="translate(0.410034)"/>
</clipPath>
</defs>
</svg>
