<svg width="40" height="40" viewBox="0 0 40 40" fill="none" xmlns="http://www.w3.org/2000/svg">
<path fill-rule="evenodd" clip-rule="evenodd" d="M87.5156 -3.05176e-05H0V87.5156H87.5156V-3.05176e-05ZM27.5201 14.7904C28.1712 14.6927 28.8069 14.5115 29.4117 14.2512C29.4595 14.2311 29.4796 14.2182 29.4881 14.2236C29.4943 14.2276 29.4943 14.2412 29.4943 14.2686C29.4998 14.3823 29.4625 14.494 29.3899 14.5817C28.9707 15.17 28.4683 15.6944 27.8984 16.1384C27.8834 16.1495 27.8664 16.1608 27.8486 16.1727C27.7684 16.2262 27.6723 16.2902 27.6723 16.3863C27.6723 19.4736 26.8809 22.5566 24.6285 24.7917C21.7629 27.6399 17.4667 28.4139 13.6488 27.3616C12.9116 27.1507 12.1999 26.8591 11.5268 26.4919C11.3007 26.3702 11.0833 26.244 10.8658 26.1006C10.818 26.0571 10.7745 26.0092 10.818 25.9875C10.8615 25.9658 10.9006 25.9614 11.0702 25.9875C12.1454 26.0831 13.2286 25.9437 14.2445 25.5787C14.29 25.5631 14.3398 25.5463 14.3932 25.5283C14.9932 25.3259 16.0388 24.9731 16.3144 24.4699L16.3404 24.4438C16.2459 24.4228 16.1577 24.4145 16.072 24.4064C16.0158 24.4011 15.9607 24.3959 15.9056 24.3873C14.8881 24.0916 13.5009 23.5611 12.8617 21.8217C12.8226 21.7217 12.8617 21.6652 12.9661 21.6869C13.4508 21.7526 13.9429 21.7379 14.4228 21.6435C14.2542 21.61 14.0895 21.559 13.9314 21.4913C13.2831 21.2292 12.716 20.7996 12.2882 20.2464C11.8603 19.6933 11.5871 19.0364 11.4963 18.343C11.484 18.1984 11.484 18.0529 11.4963 17.9082C11.5007 17.8038 11.5485 17.7734 11.6355 17.8299C12.0986 18.0658 12.6043 18.2062 13.1226 18.243C12.9574 18.1126 12.8009 17.9734 12.6487 17.8299C11.5181 16.7559 11.0789 14.5817 11.9834 13.2076C12.0573 13.1032 12.1051 13.1032 12.1964 13.2076C14.275 15.5688 16.8188 16.6689 19.9192 17.1255C19.9974 17.1385 19.9974 17.1255 19.9974 17.0342C19.9061 16.5004 19.9194 15.954 20.0366 15.4253C20.1787 14.8695 20.4381 14.3505 20.7975 13.9034C21.1392 13.4689 21.5652 13.108 22.0499 12.8423C22.5421 12.5904 23.0808 12.4424 23.6327 12.4075C24.2014 12.3715 24.7709 12.4652 25.2981 12.6815C25.6887 12.8545 26.0496 13.0878 26.3678 13.3728C26.4374 13.4367 26.5028 13.5049 26.5635 13.5772C26.5836 13.5973 26.6087 13.6116 26.6363 13.6185C26.6639 13.6254 26.6928 13.6247 26.72 13.6164C27.5001 13.4217 28.2525 13.1295 28.9594 12.7467C28.9748 12.7383 28.992 12.7339 29.0094 12.7339C29.0269 12.7339 29.0441 12.7383 29.0594 12.7467C29.0799 12.7613 29.0729 12.7857 29.0661 12.8094C29.0627 12.821 29.0594 12.8324 29.0594 12.8423C28.9279 13.2522 28.7215 13.6341 28.4507 13.9686C28.2724 14.1903 27.8245 14.7382 27.5201 14.7904Z" fill="#33CCFF"/>
</svg>
