<svg width="14" height="15" viewBox="0 0 14 15" fill="none" xmlns="http://www.w3.org/2000/svg">
<g clip-path="url(#clip0_352_553)">
<path d="M10.6831 10.1L13.9481 13.365C13.9853 13.4024 14.0062 13.4531 14.0062 13.506C14.0062 13.5588 13.9853 13.6095 13.9481 13.647L13.1481 14.448C13.1295 14.4665 13.1074 14.4813 13.0832 14.4914C13.0589 14.5014 13.0329 14.5066 13.0066 14.5066C12.9803 14.5066 12.9543 14.5014 12.93 14.4914C12.9057 14.4813 12.8836 14.4665 12.8651 14.448L9.59907 11.183C8.39937 12.1073 6.89282 12.5403 5.38543 12.394C3.87803 12.2478 2.48281 11.5333 1.48313 10.3956C0.483457 9.25796 -0.0457121 7.78244 0.00309985 6.26876C0.0519118 4.75507 0.675045 3.31671 1.74594 2.24582C2.81683 1.17492 4.25519 0.55179 5.76888 0.502978C7.28257 0.454166 8.75808 0.983335 9.89575 1.98301C11.0334 2.98269 11.7479 4.37791 11.8941 5.88531C12.0404 7.3927 11.6074 8.89925 10.6831 10.099V10.1ZM5.95607 11.333C6.59653 11.333 7.23072 11.2068 7.82242 10.9617C8.41413 10.7166 8.95176 10.3574 9.40463 9.90451C9.85751 9.45164 10.2167 8.914 10.4618 8.3223C10.7069 7.73059 10.8331 7.09641 10.8331 6.45595C10.8331 5.8155 10.7069 5.18131 10.4618 4.58961C10.2167 3.9979 9.85751 3.46026 9.40463 3.00739C8.95176 2.55452 8.41413 2.19528 7.82242 1.95019C7.23072 1.7051 6.59653 1.57895 5.95607 1.57895C4.66261 1.57895 3.42213 2.09278 2.50751 3.00739C1.5929 3.92201 1.07907 5.16249 1.07907 6.45595C1.07907 7.74941 1.5929 8.9899 2.50751 9.90451C3.42213 10.8191 4.66261 11.333 5.95607 11.333Z" fill="black" fill-opacity="0.6"/>
</g>
<defs>
<clipPath id="clip0_352_553">
<rect width="14" height="14" fill="white" transform="translate(0 0.5)"/>
</clipPath>
</defs>
</svg>
