<svg width="26" height="27" viewBox="0 0 26 27" fill="none" xmlns="http://www.w3.org/2000/svg">
<g clip-path="url(#clip0_352_174)">
<path d="M13 25.3901C9.91952 25.3901 7.1188 24.219 4.99408 22.3111C6.16616 19.5229 8.88992 18.0123 12.988 18.0123C17.0903 18.0123 19.8203 19.5952 21.0002 22.3897C18.8765 24.2923 16.0753 25.3901 13 25.3901ZM13.1446 7.03405C15.7066 7.03405 17.6223 9.01629 17.6223 11.6506C17.6223 14.3598 15.6073 16.5677 13.1446 16.5677C10.6818 16.5677 8.66684 14.3598 8.66684 11.6506C8.66684 9.01629 10.5825 7.03405 13.1446 7.03405ZM13 0.390015C5.82036 0.390015 0 6.21037 0 13.39C0 13.8658 0.02912 14.3343 0.07904 14.7966C0.09568 14.95 0.12636 15.0987 0.1482 15.2506C0.1924 15.5569 0.23816 15.8621 0.30316 16.1611C0.34112 16.3369 0.39104 16.5069 0.43628 16.6795C0.50648 16.9473 0.57824 17.2136 0.66456 17.4746C0.72384 17.6525 0.79092 17.8256 0.85696 17.9998C0.95056 18.2473 1.04884 18.4912 1.157 18.7309C1.23448 18.9031 1.31716 19.0726 1.40244 19.2405C1.51944 19.4725 1.6432 19.6997 1.77372 19.9233C1.86836 20.0855 1.96352 20.2452 2.06492 20.4027C2.20636 20.6227 2.35612 20.8354 2.51004 21.046C2.61768 21.1937 2.72324 21.3413 2.83712 21.4833C3.00612 21.6955 3.18604 21.8972 3.36752 22.0979C3.48192 22.2248 3.59216 22.3548 3.71176 22.4765C3.92236 22.6923 4.14492 22.893 4.36956 23.0932C4.45952 23.1733 4.54064 23.2622 4.6332 23.3402L4.63528 23.3345C6.97423 25.3105 9.93808 26.3932 13 26.39C16.0579 26.3935 19.0183 25.3137 21.3559 23.3423C21.3565 23.344 21.357 23.3457 21.3574 23.3475C21.4469 23.2726 21.5259 23.1868 21.6122 23.1093C21.8421 22.9055 22.0698 22.7001 22.2846 22.4807C22.4032 22.36 22.5118 22.2316 22.6252 22.1063C22.8082 21.904 22.9897 21.7007 23.1598 21.4869C23.2731 21.3455 23.3787 21.1978 23.4858 21.0512C23.6402 20.8406 23.791 20.6269 23.9325 20.4064C24.2742 19.8709 24.578 19.3121 24.8414 18.7341C24.9496 18.4943 25.0484 18.2505 25.1425 18.0029C25.2086 17.8282 25.2756 17.6551 25.3344 17.4767C25.4212 17.2157 25.493 16.9494 25.5632 16.6811C25.6084 16.5085 25.6584 16.3384 25.6963 16.1632C25.7618 15.8637 25.8076 15.5579 25.8518 15.2511C25.8736 15.0993 25.9043 14.9511 25.921 14.7977C25.9704 14.3349 26 13.8663 26 13.39C26 6.21037 20.1796 0.390015 13 0.390015Z" fill="#E37712"/>
</g>
<defs>
<clipPath id="clip0_352_174">
<rect width="26" height="26" fill="white" transform="translate(0 0.390015)"/>
</clipPath>
</defs>
</svg>
