<svg width="14" height="15" viewBox="0 0 14 15" fill="none" xmlns="http://www.w3.org/2000/svg">
<g clip-path="url(#clip0_417_177)">
<path d="M10.6831 10.1L13.9481 13.365C13.9853 13.4025 14.0062 13.4532 14.0062 13.506C14.0062 13.5588 13.9853 13.6095 13.9481 13.647L13.1481 14.448C13.1295 14.4666 13.1074 14.4813 13.0832 14.4914C13.0589 14.5015 13.0329 14.5067 13.0066 14.5067C12.9803 14.5067 12.9543 14.5015 12.93 14.4914C12.9057 14.4813 12.8836 14.4666 12.8651 14.448L9.59907 11.183C8.39937 12.1073 6.89282 12.5403 5.38543 12.3941C3.87803 12.2478 2.48281 11.5333 1.48313 10.3957C0.483457 9.25801 -0.0457121 7.78249 0.00309985 6.2688C0.0519118 4.75511 0.675045 3.31676 1.74594 2.24586C2.81683 1.17497 4.25519 0.551835 5.76888 0.503024C7.28257 0.454212 8.75808 0.983381 9.89575 1.98306C11.0334 2.98273 11.7479 4.37795 11.8941 5.88535C12.0404 7.39275 11.6074 8.89929 10.6831 10.099V10.1ZM5.95607 11.333C6.59653 11.333 7.23072 11.2069 7.82242 10.9618C8.41413 10.7167 8.95176 10.3574 9.40463 9.90456C9.85751 9.45169 10.2167 8.91405 10.4618 8.32234C10.7069 7.73064 10.8331 7.09646 10.8331 6.456C10.8331 5.81554 10.7069 5.18136 10.4618 4.58965C10.2167 3.99795 9.85751 3.46031 9.40463 3.00744C8.95176 2.55457 8.41413 2.19533 7.82242 1.95024C7.23072 1.70515 6.59653 1.579 5.95607 1.579C4.66261 1.579 3.42213 2.09282 2.50751 3.00744C1.5929 3.92205 1.07907 5.16254 1.07907 6.456C1.07907 7.74946 1.5929 8.98994 2.50751 9.90456C3.42213 10.8192 4.66261 11.333 5.95607 11.333Z" fill="black" fill-opacity="0.6"/>
</g>
<defs>
<clipPath id="clip0_417_177">
<rect width="14" height="14" fill="white" transform="translate(0 0.5)"/>
</clipPath>
</defs>
</svg>
