<svg width="40" height="40" viewBox="0 0 40 40" fill="none" xmlns="http://www.w3.org/2000/svg">
<rect width="40" height="40" rx="5" fill="#33CCFF"/>
<path d="M29.6116 13.8512C29.0068 14.1115 28.3711 14.2927 27.72 14.3904C28.0244 14.3383 28.4723 13.7904 28.6506 13.5686C28.9214 13.2341 29.1278 12.8522 29.2594 12.4424C29.2594 12.4119 29.2898 12.3684 29.2594 12.3467C29.244 12.3383 29.2268 12.3339 29.2093 12.3339C29.1919 12.3339 29.1747 12.3383 29.1593 12.3467C28.4524 12.7295 27.7 13.0217 26.9199 13.2164C26.8927 13.2247 26.8638 13.2254 26.8362 13.2185C26.8086 13.2116 26.7835 13.1974 26.7634 13.1772C26.7027 13.1049 26.6373 13.0367 26.5677 12.9729C26.2495 12.6878 25.8886 12.4545 25.498 12.2815C24.9708 12.0652 24.4013 11.9715 23.8326 12.0075C23.2807 12.0424 22.742 12.1904 22.2498 12.4424C21.7651 12.708 21.3391 13.0689 20.9974 13.5034C20.638 13.9505 20.3786 14.4695 20.2365 15.0253C20.1193 15.554 20.106 16.1004 20.1973 16.6342C20.1973 16.7255 20.1973 16.7386 20.1191 16.7255C17.0187 16.2689 14.4749 15.1688 12.3963 12.8076C12.305 12.7033 12.2572 12.7033 12.1833 12.8076C11.2788 14.1817 11.718 16.3559 12.8486 17.43C13.0008 17.5734 13.1573 17.7126 13.3225 17.843C12.8042 17.8062 12.2985 17.6658 11.8354 17.43C11.7484 17.3734 11.7006 17.4039 11.6963 17.5082C11.6839 17.6529 11.6839 17.7984 11.6963 17.9431C11.787 18.6365 12.0602 19.2933 12.4881 19.8464C12.9159 20.3996 13.483 20.8292 14.1313 21.0913C14.2894 21.159 14.4541 21.21 14.6227 21.2435C14.1428 21.338 13.6507 21.3526 13.166 21.287C13.0616 21.2652 13.0225 21.3218 13.0616 21.4218C13.7009 23.1611 15.088 23.6916 16.1055 23.9873C16.2447 24.009 16.3838 24.009 16.5403 24.0438C16.5403 24.0438 16.5403 24.0438 16.5143 24.0699C16.2142 24.6178 15.001 24.9874 14.4444 25.1788C13.4285 25.5437 12.3453 25.6832 11.2701 25.5875C11.1005 25.5614 11.0614 25.5658 11.0179 25.5875C10.9744 25.6093 11.0179 25.6571 11.0657 25.7006C11.2832 25.8441 11.5006 25.9702 11.7267 26.0919C12.3998 26.4591 13.1115 26.7507 13.8487 26.9616C17.6666 28.0139 21.9628 27.2399 24.8284 24.3917C27.0808 22.1566 27.8722 19.0736 27.8722 15.9863C27.8722 15.8689 28.0157 15.7993 28.0983 15.7384C28.6682 15.2944 29.1706 14.77 29.5898 14.1817C29.6624 14.094 29.6997 13.9824 29.6942 13.8686C29.6942 13.8034 29.6942 13.8164 29.6116 13.8512Z" fill="white"/>
</svg>
