<svg width="35" height="34" viewBox="0 0 35 34" fill="none" xmlns="http://www.w3.org/2000/svg">
<path d="M31.2134 1.41637C31.2134 1.01849 30.9148 0.753242 30.5168 0.753242H25.5412C25.5412 1.81424 25.5412 3.27312 25.5412 3.47205C25.5412 3.9694 25.1432 4.33412 24.6788 4.43358C24.1812 4.53305 23.7168 4.13518 23.6173 3.67099C23.6173 3.57152 23.6173 3.57152 23.6173 3.47205C23.6173 3.17365 23.6173 1.91371 23.6173 0.753242H11.4105C11.4105 1.81424 11.4105 3.17365 11.4105 3.47205C11.4105 3.9694 11.0125 4.43358 10.5481 4.43358C10.0506 4.43358 9.58617 4.13518 9.48666 3.67099C9.48666 3.57152 9.48666 3.57152 9.48666 3.47205C9.48666 3.27312 9.48666 1.81424 9.48666 0.753242H4.51107C4.11302 0.753242 3.84766 1.05165 3.84766 1.41637L0.862305 33.1137C0.862305 33.5116 1.16084 33.81 1.55889 33.81H33.5022C33.9002 33.81 34.1987 33.5116 34.1987 33.1137L31.2134 1.41637Z" fill="#989186"/>
</svg>
