<svg width="17" height="9" viewBox="0 0 17 9" fill="none" xmlns="http://www.w3.org/2000/svg">
<path d="M8.86723 1.68438C7.90529 1.68438 8.20382 1.68438 7.90529 1.68438C7.24188 1.68438 6.44578 1.85567 5.78237 2.11261C4.72091 2.54084 3.82531 3.28311 3.26141 4.19667C2.96287 4.71055 2.76385 5.19588 2.66434 5.7954C2.66434 6.05234 2.56482 6.22363 2.56482 6.45202C2.56482 6.79461 2.56482 7.05155 2.56482 7.36558C2.56482 7.79381 2.16678 8.1935 1.70239 8.1935C1.20483 8.1935 0.740442 7.93656 0.64093 7.53688C0.64093 7.45123 0.64093 7.45123 0.64093 7.36558C0.64093 7.023 0.64093 6.70896 0.64093 6.36638C0.64093 5.45282 0.939465 4.53925 1.30434 3.68279C1.70239 3.02617 2.16678 2.341 2.86336 1.85567C3.92482 1.02776 5.08579 0.428232 6.54529 0.171293C7.00968 0.0856463 7.50724 0 8.07114 0C8.5687 0 9.03309 0 9.53065 0C10.4926 0 11.3882 0.171293 12.1511 0.513878C13.0136 0.856463 13.8097 1.25615 14.3735 1.77002C15.435 2.68358 16.1316 3.68279 16.4965 4.93894C16.596 5.36717 16.6955 5.8525 16.6955 6.28073C16.6955 6.62331 16.6955 6.93735 16.6955 7.19429C16.6955 7.62252 16.2974 7.93656 15.8331 8.0222C15.3687 8.10785 14.8711 7.76527 14.7716 7.36558C14.7716 7.27994 14.7716 7.27994 14.7716 7.19429C14.7716 6.85171 14.7716 6.45202 14.7716 6.10944C14.7716 5.45282 14.5726 4.85329 14.1745 4.28232C13.677 3.36875 12.8145 2.59794 11.7531 2.19826C11.156 1.94132 10.5921 1.68438 9.79601 1.68438C9.53065 1.68438 8.86723 1.68438 8.86723 1.68438Z" fill="#989186"/>
</svg>
