<svg width="35" height="34" viewBox="0 0 35 34" fill="none" xmlns="http://www.w3.org/2000/svg">
<path d="M31.2134 1.4163C31.2134 1.01842 30.9148 0.753174 30.5168 0.753174H25.5412C25.5412 1.81417 25.5412 3.27305 25.5412 3.47198C25.5412 3.96933 25.1432 4.33405 24.6788 4.43351C24.1812 4.53298 23.7168 4.13511 23.6173 3.67092C23.6173 3.57145 23.6173 3.57145 23.6173 3.47198C23.6173 3.17358 23.6173 1.91364 23.6173 0.753174H11.4105C11.4105 1.81417 11.4105 3.17358 11.4105 3.47198C11.4105 3.96933 11.0125 4.43351 10.5481 4.43351C10.0506 4.43351 9.58617 4.13511 9.48665 3.67092C9.48665 3.57145 9.48665 3.57145 9.48665 3.47198C9.48665 3.27305 9.48665 1.81417 9.48665 0.753174H4.51107C4.11302 0.753174 3.84766 1.05158 3.84766 1.4163L0.862305 33.1136C0.862305 33.5115 1.16084 33.8099 1.55889 33.8099H33.5022C33.9002 33.8099 34.1987 33.5115 34.1987 33.1136L31.2134 1.4163Z" fill="#989186"/>
</svg>
