<svg width="16" height="16" viewBox="0 0 16 16" fill="none" xmlns="http://www.w3.org/2000/svg">
<path d="M8.74999 2.75C8.74999 2.33579 8.4142 2 7.99999 2C7.58578 2 7.24999 2.33579 7.24999 2.75V7.24997H2.75C2.33579 7.24997 2 7.58575 2 7.99997C2 8.41418 2.33579 8.74997 2.75 8.74997H7.24999L7.25 13.25C7.25 13.6642 7.58579 14 8 14C8.41421 14 8.75 13.6642 8.75 13.25L8.74999 8.74997H13.25C13.6642 8.74997 14 8.41418 14 7.99997C14 7.58575 13.6642 7.24997 13.25 7.24997H8.74999V2.75Z" fill="white"/>
</svg>
