<svg width="20" height="20" viewBox="0 0 20 20" fill="none" xmlns="http://www.w3.org/2000/svg">
<g clip-path="url(#clip0_1_306)">
<path fill-rule="evenodd" clip-rule="evenodd" d="M15.7912 6.99591L13.089 9.27259C13.0292 9.34478 12.92 9.35722 12.8454 9.29997C12.8316 9.29001 12.8194 9.27757 12.8099 9.26429L10.1969 6.64327C10.0877 6.49226 9.8719 6.45492 9.71503 6.55864C9.6795 6.58187 9.64917 6.61091 9.62577 6.64493L7.01017 9.31076C6.95643 9.38626 6.84897 9.40535 6.76923 9.3539C6.7545 9.34395 6.7415 9.33233 6.7311 9.31905L4.0297 7.00587C3.91183 6.86149 3.6943 6.83577 3.5435 6.94862C3.45943 7.01168 3.41003 7.10793 3.41003 7.20999L4.41003 14.5H15.41L16.41 7.20169C16.41 7.01832 16.2549 6.86979 16.0634 6.86979C15.9576 6.86979 15.8571 6.91626 15.7912 6.99591Z" fill="black"/>
</g>
<defs>
<clipPath id="clip0_1_306">
<rect width="19" height="19" fill="white" transform="translate(0.410034 0.5)"/>
</clipPath>
</defs>
</svg>
