<svg width="19" height="19" viewBox="0 0 19 19" fill="none" xmlns="http://www.w3.org/2000/svg">
<g clip-path="url(#clip0_579_127)">
<path d="M2.44399 5.99973C1.62346 5.96906 0.980076 5.28419 1.00047 4.46312C1.02087 3.64205 1.69746 2.98999 2.5185 3.00012C3.33954 3.01024 3.99985 3.6788 4 4.50012C3.98425 5.34399 3.28764 6.01535 2.44399 5.99973ZM2.44399 10.9997C1.62346 10.9691 0.980076 10.2842 1.00047 9.46312C1.02087 8.64205 1.69746 7.98999 2.5185 8.00012C3.33954 8.01024 3.99985 8.6788 4 9.50012C3.98425 10.344 3.28764 11.0154 2.44399 10.9997ZM2.44399 15.9997C1.62346 15.9691 0.980076 15.2842 1.00047 14.4631C1.02087 13.6421 1.69746 12.99 2.5185 13.0001C3.33954 13.0102 3.99985 13.6788 4 14.5001C3.98425 15.344 3.28764 16.0154 2.44399 15.9997Z" fill="black"/>
</g>
<defs>
<clipPath id="clip0_579_127">
<rect width="19" height="19" fill="white"/>
</clipPath>
</defs>
</svg>
