<svg width="19" height="20" viewBox="0 0 19 20" fill="none" xmlns="http://www.w3.org/2000/svg">
<g clip-path="url(#clip0_1_263)">
<path d="M2.44399 6.49973C1.62346 6.46906 0.980076 5.78419 1.00047 4.96312C1.02087 4.14205 1.69746 3.48999 2.5185 3.50012C3.33954 3.51024 3.99985 4.1788 4 5.00012C3.98425 5.84399 3.28764 6.51535 2.44399 6.49973ZM2.44399 11.4997C1.62346 11.4691 0.980076 10.7842 1.00047 9.96312C1.02087 9.14205 1.69746 8.48999 2.5185 8.50012C3.33954 8.51024 3.99985 9.1788 4 10.0001C3.98425 10.844 3.28764 11.5154 2.44399 11.4997ZM2.44399 16.4997C1.62346 16.4691 0.980076 15.7842 1.00047 14.9631C1.02087 14.1421 1.69746 13.49 2.5185 13.5001C3.33954 13.5102 3.99985 14.1788 4 15.0001C3.98425 15.844 3.28764 16.5154 2.44399 16.4997Z" fill="black"/>
</g>
<defs>
<clipPath id="clip0_1_263">
<rect width="19" height="19" fill="white" transform="translate(0 0.5)"/>
</clipPath>
</defs>
</svg>
