<svg width="19" height="19" viewBox="0 0 19 19" fill="none" xmlns="http://www.w3.org/2000/svg">
<g clip-path="url(#clip0_1_231)">
<path d="M12.8618 11.8618L15.8633 14.8633C15.9414 14.9414 15.9414 15.0681 15.8633 15.1462L15.1462 15.8633C15.0681 15.9414 14.9414 15.9414 14.8633 15.8633L11.8618 12.8618C10.933 13.5784 9.76865 14.0048 8.50476 14.0048C5.46719 14.0048 3.00476 11.5423 3.00476 8.50476C3.00476 5.46719 5.46719 3.00476 8.50476 3.00476C11.5423 3.00476 14.0048 5.46719 14.0048 8.50476C14.0048 9.76865 13.5784 10.933 12.8618 11.8618ZM8.5 13C10.9853 13 13 10.9853 13 8.5C13 6.01472 10.9853 4 8.5 4C6.01472 4 4 6.01472 4 8.5C4 10.9853 6.01472 13 8.5 13Z" fill="black"/>
</g>
<defs>
<clipPath id="clip0_1_231">
<rect width="19" height="19" fill="white"/>
</clipPath>
</defs>
</svg>
