<svg width="26" height="26" viewBox="0 0 26 26" fill="none" xmlns="http://www.w3.org/2000/svg">
<g filter="url(#filter0_dddi_255_621)">
<rect x="5" y="3" width="16" height="16" rx="4" fill="#2264E6"/>
<path fill-rule="evenodd" clip-rule="evenodd" d="M17.1754 6.76258C17.5827 7.13561 17.6105 7.76817 17.2374 8.17544C16.0843 9.43437 15.5299 10.2019 14.697 11.6922C14.3826 12.2548 14.0343 13.0352 13.7567 13.699C13.62 14.026 13.5041 14.3157 13.4225 14.5235C13.3817 14.6273 13.3496 14.7104 13.3279 14.7671L13.3032 14.8316L13.2971 14.8476L13.2957 14.8514C13.1716 15.1812 12.8828 15.4221 12.5359 15.4843C12.1891 15.5465 11.8351 15.4215 11.6042 15.1554L8.74469 11.8597C8.38275 11.4425 8.42751 10.811 8.84466 10.449C9.26182 10.0871 9.8934 10.1318 10.2553 10.549L12.0451 12.6118C12.3093 11.9954 12.6343 11.2834 12.9512 10.7165C13.8595 9.0911 14.5049 8.19765 15.7626 6.82457C16.1356 6.41731 16.7682 6.38955 17.1754 6.76258Z" fill="white"/>
</g>
<defs>
<filter id="filter0_dddi_255_621" x="0" y="0" width="26" height="26" filterUnits="userSpaceOnUse" color-interpolation-filters="sRGB">
<feFlood flood-opacity="0" result="BackgroundImageFix"/>
<feColorMatrix in="SourceAlpha" type="matrix" values="0 0 0 0 0 0 0 0 0 0 0 0 0 0 0 0 0 0 127 0" result="hardAlpha"/>
<feOffset dy="2"/>
<feGaussianBlur stdDeviation="2.5"/>
<feColorMatrix type="matrix" values="0 0 0 0 0.135 0 0 0 0 0.393312 0 0 0 0 0.9 0 0 0 0.12 0"/>
<feBlend mode="normal" in2="BackgroundImageFix" result="effect1_dropShadow_255_621"/>
<feColorMatrix in="SourceAlpha" type="matrix" values="0 0 0 0 0 0 0 0 0 0 0 0 0 0 0 0 0 0 127 0" result="hardAlpha"/>
<feMorphology radius="1" operator="dilate" in="SourceAlpha" result="effect2_dropShadow_255_621"/>
<feOffset/>
<feColorMatrix type="matrix" values="0 0 0 0 0.135 0 0 0 0 0.393312 0 0 0 0 0.9 0 0 0 1 0"/>
<feBlend mode="normal" in2="effect1_dropShadow_255_621" result="effect2_dropShadow_255_621"/>
<feColorMatrix in="SourceAlpha" type="matrix" values="0 0 0 0 0 0 0 0 0 0 0 0 0 0 0 0 0 0 127 0" result="hardAlpha"/>
<feOffset dy="1"/>
<feGaussianBlur stdDeviation="0.5"/>
<feColorMatrix type="matrix" values="0 0 0 0 0 0 0 0 0 0 0 0 0 0 0 0 0 0 0.14 0"/>
<feBlend mode="normal" in2="effect2_dropShadow_255_621" result="effect3_dropShadow_255_621"/>
<feBlend mode="normal" in="SourceGraphic" in2="effect3_dropShadow_255_621" result="shape"/>
<feColorMatrix in="SourceAlpha" type="matrix" values="0 0 0 0 0 0 0 0 0 0 0 0 0 0 0 0 0 0 127 0" result="hardAlpha"/>
<feOffset dy="1"/>
<feComposite in2="hardAlpha" operator="arithmetic" k2="-1" k3="1"/>
<feColorMatrix type="matrix" values="0 0 0 0 0.294 0 0 0 0 0.522667 0 0 0 0 0.98 0 0 0 1 0"/>
<feBlend mode="normal" in2="shape" result="effect4_innerShadow_255_621"/>
</filter>
</defs>
</svg>
