<svg width="16" height="16" viewBox="0 0 16 16" fill="none" xmlns="http://www.w3.org/2000/svg">
<path d="M4.79114 3.72156C4.49577 3.42619 4.01689 3.42619 3.72152 3.72156C3.42616 4.01693 3.42616 4.49581 3.72152 4.79117L6.93037 8.00002L3.72155 11.2088C3.42619 11.5042 3.42619 11.9831 3.72155 12.2784C4.01692 12.5738 4.4958 12.5738 4.79117 12.2784L7.99998 9.06963L11.2088 12.2785C11.5042 12.5738 11.9831 12.5738 12.2784 12.2785C12.5738 11.9831 12.5738 11.5042 12.2784 11.2089L9.06959 8.00002L12.2785 4.79114C12.5738 4.49577 12.5738 4.01689 12.2785 3.72152C11.9831 3.42616 11.5042 3.42616 11.2089 3.72152L7.99998 6.9304L4.79114 3.72156Z" fill="white"/>
</svg>
