<svg width="14" height="14" viewBox="0 0 14 14" fill="none" xmlns="http://www.w3.org/2000/svg">
<path d="M4.19225 3.25636C3.9338 2.99792 3.51478 2.99792 3.25633 3.25636C2.99789 3.51481 2.99789 3.93383 3.25633 4.19228L6.06407 7.00001L3.25636 9.80772C2.99792 10.0662 2.99792 10.4852 3.25636 10.7436C3.51481 11.0021 3.93383 11.0021 4.19227 10.7436L6.99998 7.93593L9.80772 10.7437C10.0662 11.0021 10.4852 11.0021 10.7436 10.7437C11.0021 10.4852 11.0021 10.0662 10.7436 9.80775L7.9359 7.00001L10.7437 4.19225C11.0021 3.9338 11.0021 3.51478 10.7437 3.25633C10.4852 2.99789 10.0662 2.99789 9.80775 3.25633L6.99998 6.0641L4.19225 3.25636Z" fill="white"/>
</svg>
