<svg width="32" height="32" viewBox="0 0 32 32" fill="none" xmlns="http://www.w3.org/2000/svg">
<mask id="path-1-inside-1_235_250" fill="white">
<path fill-rule="evenodd" clip-rule="evenodd" d="M0 4.00232V28.0023L3.99768 32H28.0023L32 28.0023V4.00232L28 0.00231934L28.0023 0H3.99768L4 0.00231934L0 4.00232Z"/>
</mask>
<path fill-rule="evenodd" clip-rule="evenodd" d="M0 4.00232V28.0023L3.99768 32H28.0023L32 28.0023V4.00232L28 0.00231934L28.0023 0H3.99768L4 0.00231934L0 4.00232Z" fill="white"/>
<path d="M0 4.00232L-0.707107 3.29521L-1 3.58811V4.00232H0ZM0 28.0023H-1V28.4165L-0.707107 28.7094L0 28.0023ZM3.99768 32L3.29057 32.7071L3.58347 33H3.99768V32ZM28.0023 32V33H28.4165L28.7094 32.7071L28.0023 32ZM32 28.0023L32.7071 28.7094L33 28.4165V28.0023H32ZM32 4.00232H33V3.58811L32.7071 3.29521L32 4.00232ZM28 0.00231934L27.2929 -0.704787L26.5858 0.00231934L27.2929 0.709426L28 0.00231934ZM28.0023 0L28.7094 0.707107L30.4165 -1H28.0023V0ZM3.99768 0V-1H1.58347L3.29057 0.707107L3.99768 0ZM4 0.00231934L4.70711 0.709426L5.41421 0.00231934L4.70711 -0.704787L4 0.00231934ZM-1 4.00232V28.0023H1V4.00232H-1ZM-0.707107 28.7094L3.29057 32.7071L4.70479 31.2929L0.707107 27.2952L-0.707107 28.7094ZM3.99768 33H28.0023V31H3.99768V33ZM28.7094 32.7071L32.7071 28.7094L31.2929 27.2952L27.2952 31.2929L28.7094 32.7071ZM33 28.0023V4.00232H31V28.0023H33ZM32.7071 3.29521L28.7071 -0.704787L27.2929 0.709426L31.2929 4.70943L32.7071 3.29521ZM28.7071 0.709426L28.7094 0.707107L27.2952 -0.707107L27.2929 -0.704787L28.7071 0.709426ZM28.0023 -1H3.99768V1H28.0023V-1ZM3.29057 0.707107L3.29289 0.709426L4.70711 -0.704787L4.70479 -0.707107L3.29057 0.707107ZM3.29289 -0.704787L-0.707107 3.29521L0.707107 4.70943L4.70711 0.709426L3.29289 -0.704787Z" fill="#B0BAC9" mask="url(#path-1-inside-1_235_250)"/>
</svg>
