<svg width="414" height="199" viewBox="0 0 414 199" fill="none" xmlns="http://www.w3.org/2000/svg">
<mask id="mask0_1_319" style="mask-type:alpha" maskUnits="userSpaceOnUse" x="0" y="0" width="414" height="199">
<rect y="0.5" width="414" height="198.5" fill="url(#paint0_linear_1_319)"/>
</mask>
<g mask="url(#mask0_1_319)">
</g>
<g clip-path="url(#clip0_1_319)">
<g clip-path="url(#clip1_1_319)">
<g clip-path="url(#clip2_1_319)">
<g clip-path="url(#clip3_1_319)">
<g clip-path="url(#clip4_1_319)">
<path d="M4 109.88V99.704H0.064V98.68H9.12V99.704H5.184V109.88H4ZM15.0595 101.4C15.7422 101.4 16.3395 101.533 16.8515 101.8C17.3742 102.056 17.7795 102.451 18.0675 102.984C18.3662 103.517 18.5155 104.189 18.5155 105V109.88H17.3795V105.112C17.3795 104.227 17.1555 103.56 16.7075 103.112C16.2702 102.653 15.6515 102.424 14.8515 102.424C14.2542 102.424 13.7315 102.547 13.2835 102.792C12.8462 103.027 12.5048 103.373 12.2595 103.832C12.0248 104.28 11.9075 104.824 11.9075 105.464V109.88H10.7715V98.008H11.9075V103.784L11.6835 103.352C11.9502 102.744 12.3768 102.269 12.9635 101.928C13.5502 101.576 14.2488 101.4 15.0595 101.4ZM25.152 109.96C24.2773 109.96 23.5093 109.779 22.848 109.416C22.1867 109.043 21.6693 108.536 21.296 107.896C20.9227 107.245 20.736 106.504 20.736 105.672C20.736 104.84 20.912 104.104 21.264 103.464C21.6267 102.824 22.1173 102.323 22.736 101.96C23.3653 101.587 24.0693 101.4 24.848 101.4C25.6373 101.4 26.336 101.581 26.944 101.944C27.5627 102.296 28.048 102.797 28.4 103.448C28.752 104.088 28.928 104.829 28.928 105.672C28.928 105.725 28.9227 105.784 28.912 105.848C28.912 105.901 28.912 105.96 28.912 106.024H21.6V105.176H28.304L27.856 105.512C27.856 104.904 27.7227 104.365 27.456 103.896C27.2 103.416 26.848 103.043 26.4 102.776C25.952 102.509 25.4347 102.376 24.848 102.376C24.272 102.376 23.7547 102.509 23.296 102.776C22.8373 103.043 22.48 103.416 22.224 103.896C21.968 104.376 21.84 104.925 21.84 105.544V105.72C21.84 106.36 21.9787 106.925 22.256 107.416C22.544 107.896 22.9387 108.275 23.44 108.552C23.952 108.819 24.5333 108.952 25.184 108.952C25.696 108.952 26.1707 108.861 26.608 108.68C27.056 108.499 27.44 108.221 27.76 107.848L28.4 108.584C28.0267 109.032 27.5573 109.373 26.992 109.608C26.4373 109.843 25.824 109.96 25.152 109.96ZM35.6678 109.88V98.68H40.2278C41.4224 98.68 42.4678 98.92 43.3638 99.4C44.2704 99.8693 44.9744 100.525 45.4758 101.368C45.9771 102.211 46.2278 103.181 46.2278 104.28C46.2278 105.379 45.9771 106.349 45.4758 107.192C44.9744 108.035 44.2704 108.696 43.3638 109.176C42.4678 109.645 41.4224 109.88 40.2278 109.88H35.6678ZM36.8518 108.856H40.1638C41.1558 108.856 42.0144 108.664 42.7398 108.28C43.4758 107.885 44.0464 107.347 44.4518 106.664C44.8571 105.971 45.0598 105.176 45.0598 104.28C45.0598 103.373 44.8571 102.579 44.4518 101.896C44.0464 101.213 43.4758 100.68 42.7398 100.296C42.0144 99.9013 41.1558 99.704 40.1638 99.704H36.8518V108.856ZM52.0705 109.96C51.2598 109.96 50.5292 109.779 49.8785 109.416C49.2385 109.043 48.7318 108.536 48.3585 107.896C47.9852 107.245 47.7985 106.504 47.7985 105.672C47.7985 104.829 47.9852 104.088 48.3585 103.448C48.7318 102.808 49.2385 102.307 49.8785 101.944C50.5185 101.581 51.2492 101.4 52.0705 101.4C52.9025 101.4 53.6385 101.581 54.2785 101.944C54.9292 102.307 55.4358 102.808 55.7985 103.448C56.1718 104.088 56.3585 104.829 56.3585 105.672C56.3585 106.504 56.1718 107.245 55.7985 107.896C55.4358 108.536 54.9292 109.043 54.2785 109.416C53.6278 109.779 52.8918 109.96 52.0705 109.96ZM52.0705 108.952C52.6785 108.952 53.2172 108.819 53.6865 108.552C54.1558 108.275 54.5238 107.891 54.7905 107.4C55.0678 106.899 55.2065 106.323 55.2065 105.672C55.2065 105.011 55.0678 104.435 54.7905 103.944C54.5238 103.453 54.1558 103.075 53.6865 102.808C53.2172 102.531 52.6838 102.392 52.0865 102.392C51.4892 102.392 50.9558 102.531 50.4865 102.808C50.0172 103.075 49.6438 103.453 49.3665 103.944C49.0892 104.435 48.9505 105.011 48.9505 105.672C48.9505 106.323 49.0892 106.899 49.3665 107.4C49.6438 107.891 50.0172 108.275 50.4865 108.552C50.9558 108.819 51.4838 108.952 52.0705 108.952ZM62.9658 101.4C63.6484 101.4 64.2458 101.533 64.7578 101.8C65.2804 102.056 65.6858 102.451 65.9738 102.984C66.2724 103.517 66.4218 104.189 66.4218 105V109.88H65.2858V105.112C65.2858 104.227 65.0618 103.56 64.6138 103.112C64.1764 102.653 63.5578 102.424 62.7578 102.424C62.1604 102.424 61.6378 102.547 61.1898 102.792C60.7524 103.027 60.4111 103.373 60.1658 103.832C59.9311 104.28 59.8138 104.824 59.8138 105.464V109.88H58.6778V101.48H59.7658V103.784L59.5898 103.352C59.8564 102.744 60.2831 102.269 60.8698 101.928C61.4564 101.576 62.1551 101.4 62.9658 101.4ZM71.7463 109.96C71.0529 109.96 70.3969 109.864 69.7783 109.672C69.1596 109.469 68.6743 109.219 68.3223 108.92L68.8343 108.024C69.1756 108.28 69.6129 108.504 70.1463 108.696C70.6796 108.877 71.2396 108.968 71.8263 108.968C72.6263 108.968 73.2023 108.845 73.5543 108.6C73.9063 108.344 74.0823 108.008 74.0823 107.592C74.0823 107.283 73.9809 107.043 73.7783 106.872C73.5863 106.691 73.3303 106.557 73.0103 106.472C72.6903 106.376 72.3329 106.296 71.9383 106.232C71.5436 106.168 71.1489 106.093 70.7543 106.008C70.3703 105.923 70.0183 105.8 69.6983 105.64C69.3783 105.469 69.1169 105.24 68.9143 104.952C68.7223 104.664 68.6263 104.28 68.6263 103.8C68.6263 103.341 68.7543 102.931 69.0103 102.568C69.2663 102.205 69.6396 101.923 70.1303 101.72C70.6316 101.507 71.2396 101.4 71.9543 101.4C72.4983 101.4 73.0423 101.475 73.5863 101.624C74.1303 101.763 74.5783 101.949 74.9303 102.184L74.4343 103.096C74.0609 102.84 73.6609 102.659 73.2343 102.552C72.8076 102.435 72.3809 102.376 71.9543 102.376C71.1969 102.376 70.6369 102.509 70.2743 102.776C69.9223 103.032 69.7463 103.363 69.7463 103.768C69.7463 104.088 69.8423 104.339 70.0343 104.52C70.2369 104.701 70.4983 104.845 70.8183 104.952C71.1489 105.048 71.5063 105.128 71.8903 105.192C72.2849 105.256 72.6743 105.336 73.0583 105.432C73.4529 105.517 73.8103 105.64 74.1303 105.8C74.4609 105.949 74.7223 106.168 74.9143 106.456C75.1169 106.733 75.2183 107.101 75.2183 107.56C75.2183 108.051 75.0796 108.477 74.8023 108.84C74.5356 109.192 74.1409 109.469 73.6183 109.672C73.1063 109.864 72.4823 109.96 71.7463 109.96ZM77.4148 103.144C77.1801 103.144 76.9774 103.059 76.8068 102.888C76.6468 102.717 76.5668 102.509 76.5668 102.264C76.5668 102.008 76.6468 101.8 76.8068 101.64C76.9774 101.48 77.1801 101.4 77.4148 101.4C77.6494 101.4 77.8468 101.48 78.0068 101.64C78.1774 101.8 78.2628 102.008 78.2628 102.264C78.2628 102.509 78.1774 102.717 78.0068 102.888C77.8468 103.059 77.6494 103.144 77.4148 103.144ZM77.4148 109.96C77.1801 109.96 76.9774 109.875 76.8068 109.704C76.6468 109.533 76.5668 109.325 76.5668 109.08C76.5668 108.824 76.6468 108.616 76.8068 108.456C76.9774 108.296 77.1801 108.216 77.4148 108.216C77.6494 108.216 77.8468 108.296 78.0068 108.456C78.1774 108.616 78.2628 108.824 78.2628 109.08C78.2628 109.325 78.1774 109.533 78.0068 109.704C77.8468 109.875 77.6494 109.96 77.4148 109.96ZM83.3289 109.88L88.4489 98.68H89.6169L94.7369 109.88H93.4889L88.7849 99.368H89.2649L84.5609 109.88H83.3289ZM85.3449 106.888L85.6969 105.928H92.2089L92.5609 106.888H85.3449ZM100.777 109.88V98.68H101.961V108.856H108.233V109.88H100.777ZM113.402 109.96C112.527 109.96 111.759 109.779 111.098 109.416C110.437 109.043 109.919 108.536 109.546 107.896C109.173 107.245 108.986 106.504 108.986 105.672C108.986 104.84 109.162 104.104 109.514 103.464C109.877 102.824 110.367 102.323 110.986 101.96C111.615 101.587 112.319 101.4 113.098 101.4C113.887 101.4 114.586 101.581 115.194 101.944C115.813 102.296 116.298 102.797 116.65 103.448C117.002 104.088 117.178 104.829 117.178 105.672C117.178 105.725 117.173 105.784 117.162 105.848C117.162 105.901 117.162 105.96 117.162 106.024H109.85V105.176H116.554L116.106 105.512C116.106 104.904 115.973 104.365 115.706 103.896C115.45 103.416 115.098 103.043 114.65 102.776C114.202 102.509 113.685 102.376 113.098 102.376C112.522 102.376 112.005 102.509 111.546 102.776C111.087 103.043 110.73 103.416 110.474 103.896C110.218 104.376 110.09 104.925 110.09 105.544V105.72C110.09 106.36 110.229 106.925 110.506 107.416C110.794 107.896 111.189 108.275 111.69 108.552C112.202 108.819 112.783 108.952 113.434 108.952C113.946 108.952 114.421 108.861 114.858 108.68C115.306 108.499 115.69 108.221 116.01 107.848L116.65 108.584C116.277 109.032 115.807 109.373 115.242 109.608C114.687 109.843 114.074 109.96 113.402 109.96ZM123.074 113.064C122.306 113.064 121.57 112.952 120.866 112.728C120.162 112.504 119.592 112.184 119.154 111.768L119.73 110.904C120.125 111.256 120.61 111.533 121.186 111.736C121.773 111.949 122.392 112.056 123.042 112.056C124.109 112.056 124.893 111.805 125.394 111.304C125.896 110.813 126.146 110.045 126.146 109V106.904L126.306 105.464L126.194 104.024V101.48H127.282V108.856C127.282 110.307 126.925 111.368 126.21 112.04C125.506 112.723 124.461 113.064 123.074 113.064ZM122.866 109.56C122.066 109.56 121.346 109.389 120.706 109.048C120.066 108.696 119.56 108.211 119.186 107.592C118.824 106.973 118.642 106.264 118.642 105.464C118.642 104.664 118.824 103.96 119.186 103.352C119.56 102.733 120.066 102.253 120.706 101.912C121.346 101.571 122.066 101.4 122.866 101.4C123.613 101.4 124.285 101.555 124.882 101.864C125.48 102.173 125.954 102.632 126.306 103.24C126.658 103.848 126.834 104.589 126.834 105.464C126.834 106.339 126.658 107.08 126.306 107.688C125.954 108.296 125.48 108.76 124.882 109.08C124.285 109.4 123.613 109.56 122.866 109.56ZM122.978 108.552C123.597 108.552 124.146 108.424 124.626 108.168C125.106 107.901 125.485 107.539 125.762 107.08C126.04 106.611 126.178 106.072 126.178 105.464C126.178 104.856 126.04 104.323 125.762 103.864C125.485 103.405 125.106 103.048 124.626 102.792C124.146 102.525 123.597 102.392 122.978 102.392C122.37 102.392 121.821 102.525 121.33 102.792C120.85 103.048 120.472 103.405 120.194 103.864C119.928 104.323 119.794 104.856 119.794 105.464C119.794 106.072 119.928 106.611 120.194 107.08C120.472 107.539 120.85 107.901 121.33 108.168C121.821 108.424 122.37 108.552 122.978 108.552ZM135.707 109.88V108.024L135.659 107.72V104.616C135.659 103.901 135.457 103.352 135.051 102.968C134.657 102.584 134.065 102.392 133.275 102.392C132.731 102.392 132.214 102.483 131.723 102.664C131.233 102.845 130.817 103.085 130.475 103.384L129.963 102.536C130.39 102.173 130.902 101.896 131.499 101.704C132.097 101.501 132.726 101.4 133.387 101.4C134.475 101.4 135.313 101.672 135.899 102.216C136.497 102.749 136.795 103.565 136.795 104.664V109.88H135.707ZM132.811 109.96C132.182 109.96 131.633 109.859 131.163 109.656C130.705 109.443 130.353 109.155 130.107 108.792C129.862 108.419 129.739 107.992 129.739 107.512C129.739 107.075 129.841 106.68 130.043 106.328C130.257 105.965 130.598 105.677 131.067 105.464C131.547 105.24 132.187 105.128 132.987 105.128H135.883V105.976H133.019C132.209 105.976 131.643 106.12 131.323 106.408C131.014 106.696 130.859 107.053 130.859 107.48C130.859 107.96 131.046 108.344 131.419 108.632C131.793 108.92 132.315 109.064 132.987 109.064C133.627 109.064 134.177 108.92 134.635 108.632C135.105 108.333 135.446 107.907 135.659 107.352L135.915 108.136C135.702 108.691 135.329 109.133 134.795 109.464C134.273 109.795 133.611 109.96 132.811 109.96ZM143.369 109.96C142.537 109.96 141.79 109.779 141.129 109.416C140.478 109.043 139.966 108.536 139.593 107.896C139.22 107.245 139.033 106.504 139.033 105.672C139.033 104.829 139.22 104.088 139.593 103.448C139.966 102.808 140.478 102.307 141.129 101.944C141.79 101.581 142.537 101.4 143.369 101.4C144.084 101.4 144.729 101.539 145.305 101.816C145.881 102.093 146.334 102.509 146.665 103.064L145.817 103.64C145.529 103.213 145.172 102.899 144.745 102.696C144.318 102.493 143.854 102.392 143.353 102.392C142.756 102.392 142.217 102.531 141.737 102.808C141.257 103.075 140.878 103.453 140.601 103.944C140.324 104.435 140.185 105.011 140.185 105.672C140.185 106.333 140.324 106.909 140.601 107.4C140.878 107.891 141.257 108.275 141.737 108.552C142.217 108.819 142.756 108.952 143.353 108.952C143.854 108.952 144.318 108.851 144.745 108.648C145.172 108.445 145.529 108.136 145.817 107.72L146.665 108.296C146.334 108.84 145.881 109.256 145.305 109.544C144.729 109.821 144.084 109.96 143.369 109.96ZM148.836 113.064C148.441 113.064 148.062 113 147.7 112.872C147.348 112.744 147.043 112.552 146.787 112.296L147.316 111.448C147.529 111.651 147.758 111.805 148.004 111.912C148.26 112.029 148.542 112.088 148.852 112.088C149.225 112.088 149.545 111.981 149.812 111.768C150.089 111.565 150.35 111.203 150.596 110.68L151.14 109.448L151.268 109.272L154.724 101.48H155.844L151.636 110.888C151.401 111.432 151.14 111.864 150.852 112.184C150.574 112.504 150.27 112.728 149.94 112.856C149.609 112.995 149.241 113.064 148.836 113.064ZM151.076 110.12L147.204 101.48H148.388L151.812 109.192L151.076 110.12ZM165.055 109.96C164.244 109.96 163.514 109.779 162.863 109.416C162.223 109.043 161.716 108.536 161.343 107.896C160.97 107.245 160.783 106.504 160.783 105.672C160.783 104.829 160.97 104.088 161.343 103.448C161.716 102.808 162.223 102.307 162.863 101.944C163.503 101.581 164.234 101.4 165.055 101.4C165.887 101.4 166.623 101.581 167.263 101.944C167.914 102.307 168.42 102.808 168.783 103.448C169.156 104.088 169.343 104.829 169.343 105.672C169.343 106.504 169.156 107.245 168.783 107.896C168.42 108.536 167.914 109.043 167.263 109.416C166.612 109.779 165.876 109.96 165.055 109.96ZM165.055 108.952C165.663 108.952 166.202 108.819 166.671 108.552C167.14 108.275 167.508 107.891 167.775 107.4C168.052 106.899 168.191 106.323 168.191 105.672C168.191 105.011 168.052 104.435 167.775 103.944C167.508 103.453 167.14 103.075 166.671 102.808C166.202 102.531 165.668 102.392 165.071 102.392C164.474 102.392 163.94 102.531 163.471 102.808C163.002 103.075 162.628 103.453 162.351 103.944C162.074 104.435 161.935 105.011 161.935 105.672C161.935 106.323 162.074 106.899 162.351 107.4C162.628 107.891 163.002 108.275 163.471 108.552C163.94 108.819 164.468 108.952 165.055 108.952ZM171.854 109.88V100.424C171.854 99.6773 172.073 99.0747 172.51 98.616C172.947 98.1573 173.577 97.928 174.398 97.928C174.718 97.928 175.027 97.9707 175.326 98.056C175.625 98.1413 175.875 98.2747 176.078 98.456L175.694 99.304C175.534 99.1653 175.347 99.064 175.134 99C174.921 98.9253 174.691 98.888 174.446 98.888C173.966 98.888 173.598 99.0213 173.342 99.288C173.086 99.5547 172.958 99.9493 172.958 100.472V101.752L172.99 102.28V109.88H171.854ZM170.35 102.424V101.48H175.55V102.424H170.35ZM179.72 109.88L184.84 98.68H186.008L191.128 109.88H189.88L185.176 99.368H185.656L180.952 109.88H179.72ZM181.736 106.888L182.088 105.928H188.6L188.952 106.888H181.736ZM195.318 109.96C194.529 109.96 193.921 109.747 193.494 109.32C193.067 108.893 192.854 108.291 192.854 107.512V99.624H193.99V107.448C193.99 107.939 194.113 108.317 194.358 108.584C194.614 108.851 194.977 108.984 195.446 108.984C195.947 108.984 196.363 108.84 196.694 108.552L197.094 109.368C196.87 109.571 196.598 109.72 196.278 109.816C195.969 109.912 195.649 109.96 195.318 109.96ZM191.35 102.424V101.48H196.55V102.424H191.35ZM203.45 101.4C204.133 101.4 204.73 101.533 205.242 101.8C205.765 102.056 206.17 102.451 206.458 102.984C206.757 103.517 206.906 104.189 206.906 105V109.88H205.77V105.112C205.77 104.227 205.546 103.56 205.098 103.112C204.661 102.653 204.042 102.424 203.242 102.424C202.645 102.424 202.122 102.547 201.674 102.792C201.237 103.027 200.895 103.373 200.65 103.832C200.415 104.28 200.298 104.824 200.298 105.464V109.88H199.162V98.008H200.298V103.784L200.074 103.352C200.341 102.744 200.767 102.269 201.354 101.928C201.941 101.576 202.639 101.4 203.45 101.4ZM209.975 109.88V98.008H211.111V109.88H209.975ZM217.84 109.96C216.965 109.96 216.197 109.779 215.536 109.416C214.874 109.043 214.357 108.536 213.984 107.896C213.61 107.245 213.424 106.504 213.424 105.672C213.424 104.84 213.6 104.104 213.952 103.464C214.314 102.824 214.805 102.323 215.424 101.96C216.053 101.587 216.757 101.4 217.536 101.4C218.325 101.4 219.024 101.581 219.632 101.944C220.25 102.296 220.736 102.797 221.088 103.448C221.44 104.088 221.616 104.829 221.616 105.672C221.616 105.725 221.61 105.784 221.6 105.848C221.6 105.901 221.6 105.96 221.6 106.024H214.288V105.176H220.992L220.544 105.512C220.544 104.904 220.41 104.365 220.144 103.896C219.888 103.416 219.536 103.043 219.088 102.776C218.64 102.509 218.122 102.376 217.536 102.376C216.96 102.376 216.442 102.509 215.984 102.776C215.525 103.043 215.168 103.416 214.912 103.896C214.656 104.376 214.528 104.925 214.528 105.544V105.72C214.528 106.36 214.666 106.925 214.944 107.416C215.232 107.896 215.626 108.275 216.128 108.552C216.64 108.819 217.221 108.952 217.872 108.952C218.384 108.952 218.858 108.861 219.296 108.68C219.744 108.499 220.128 108.221 220.448 107.848L221.088 108.584C220.714 109.032 220.245 109.373 219.68 109.608C219.125 109.843 218.512 109.96 217.84 109.96ZM226.584 109.96C225.794 109.96 225.186 109.747 224.76 109.32C224.333 108.893 224.12 108.291 224.12 107.512V99.624H225.256V107.448C225.256 107.939 225.378 108.317 225.624 108.584C225.88 108.851 226.242 108.984 226.712 108.984C227.213 108.984 227.629 108.84 227.96 108.552L228.36 109.368C228.136 109.571 227.864 109.72 227.544 109.816C227.234 109.912 226.914 109.96 226.584 109.96ZM222.616 102.424V101.48H227.816V102.424H222.616ZM230.428 109.88V101.48H231.564V109.88H230.428ZM231.004 99.624C230.769 99.624 230.572 99.544 230.412 99.384C230.252 99.224 230.172 99.032 230.172 98.808C230.172 98.584 230.252 98.3973 230.412 98.248C230.572 98.088 230.769 98.008 231.004 98.008C231.238 98.008 231.436 98.0827 231.596 98.232C231.756 98.3813 231.836 98.568 231.836 98.792C231.836 99.0267 231.756 99.224 231.596 99.384C231.446 99.544 231.249 99.624 231.004 99.624ZM238.213 109.96C237.381 109.96 236.634 109.779 235.973 109.416C235.322 109.043 234.81 108.536 234.437 107.896C234.063 107.245 233.877 106.504 233.877 105.672C233.877 104.829 234.063 104.088 234.437 103.448C234.81 102.808 235.322 102.307 235.973 101.944C236.634 101.581 237.381 101.4 238.213 101.4C238.927 101.4 239.573 101.539 240.149 101.816C240.725 102.093 241.178 102.509 241.509 103.064L240.661 103.64C240.373 103.213 240.015 102.899 239.589 102.696C239.162 102.493 238.698 102.392 238.197 102.392C237.599 102.392 237.061 102.531 236.581 102.808C236.101 103.075 235.722 103.453 235.445 103.944C235.167 104.435 235.029 105.011 235.029 105.672C235.029 106.333 235.167 106.909 235.445 107.4C235.722 107.891 236.101 108.275 236.581 108.552C237.061 108.819 237.599 108.952 238.197 108.952C238.698 108.952 239.162 108.851 239.589 108.648C240.015 108.445 240.373 108.136 240.661 107.72L241.509 108.296C241.178 108.84 240.725 109.256 240.149 109.544C239.573 109.821 238.927 109.96 238.213 109.96ZM249.224 103.688H255.144V104.696H249.224V103.688ZM249.352 108.856H256.088V109.88H248.168V98.68H255.848V99.704H249.352V108.856ZM257.117 109.88L260.669 105.272L260.653 105.832L257.277 101.48H258.557L261.325 105.08L260.845 105.064L263.613 101.48H264.861L261.453 105.88L261.469 105.272L265.053 109.88H263.757L260.829 106.04L261.277 106.104L258.397 109.88H257.117ZM270.135 109.96C269.303 109.96 268.556 109.779 267.895 109.416C267.244 109.043 266.732 108.536 266.359 107.896C265.985 107.245 265.799 106.504 265.799 105.672C265.799 104.829 265.985 104.088 266.359 103.448C266.732 102.808 267.244 102.307 267.895 101.944C268.556 101.581 269.303 101.4 270.135 101.4C270.849 101.4 271.495 101.539 272.071 101.816C272.647 102.093 273.1 102.509 273.431 103.064L272.583 103.64C272.295 103.213 271.937 102.899 271.511 102.696C271.084 102.493 270.62 102.392 270.119 102.392C269.521 102.392 268.983 102.531 268.503 102.808C268.023 103.075 267.644 103.453 267.367 103.944C267.089 104.435 266.951 105.011 266.951 105.672C266.951 106.333 267.089 106.909 267.367 107.4C267.644 107.891 268.023 108.275 268.503 108.552C268.983 108.819 269.521 108.952 270.119 108.952C270.62 108.952 271.084 108.851 271.511 108.648C271.937 108.445 272.295 108.136 272.583 107.72L273.431 108.296C273.1 108.84 272.647 109.256 272.071 109.544C271.495 109.821 270.849 109.96 270.135 109.96ZM279.09 109.96C278.215 109.96 277.447 109.779 276.786 109.416C276.124 109.043 275.607 108.536 275.234 107.896C274.86 107.245 274.674 106.504 274.674 105.672C274.674 104.84 274.85 104.104 275.202 103.464C275.564 102.824 276.055 102.323 276.674 101.96C277.303 101.587 278.007 101.4 278.786 101.4C279.575 101.4 280.274 101.581 280.882 101.944C281.5 102.296 281.986 102.797 282.338 103.448C282.69 104.088 282.866 104.829 282.866 105.672C282.866 105.725 282.86 105.784 282.85 105.848C282.85 105.901 282.85 105.96 282.85 106.024H275.538V105.176H282.242L281.794 105.512C281.794 104.904 281.66 104.365 281.394 103.896C281.138 103.416 280.786 103.043 280.338 102.776C279.89 102.509 279.372 102.376 278.786 102.376C278.21 102.376 277.692 102.509 277.234 102.776C276.775 103.043 276.418 103.416 276.162 103.896C275.906 104.376 275.778 104.925 275.778 105.544V105.72C275.778 106.36 275.916 106.925 276.194 107.416C276.482 107.896 276.876 108.275 277.378 108.552C277.89 108.819 278.471 108.952 279.122 108.952C279.634 108.952 280.108 108.861 280.546 108.68C280.994 108.499 281.378 108.221 281.698 107.848L282.338 108.584C281.964 109.032 281.495 109.373 280.93 109.608C280.375 109.843 279.762 109.96 279.09 109.96ZM285.178 109.88V98.008H286.314V109.88H285.178ZM289.475 109.88V98.008H290.611V109.88H289.475ZM297.34 109.96C296.465 109.96 295.697 109.779 295.036 109.416C294.374 109.043 293.857 108.536 293.484 107.896C293.11 107.245 292.924 106.504 292.924 105.672C292.924 104.84 293.1 104.104 293.452 103.464C293.814 102.824 294.305 102.323 294.924 101.96C295.553 101.587 296.257 101.4 297.036 101.4C297.825 101.4 298.524 101.581 299.132 101.944C299.75 102.296 300.236 102.797 300.588 103.448C300.94 104.088 301.116 104.829 301.116 105.672C301.116 105.725 301.11 105.784 301.1 105.848C301.1 105.901 301.1 105.96 301.1 106.024H293.788V105.176H300.492L300.044 105.512C300.044 104.904 299.91 104.365 299.644 103.896C299.388 103.416 299.036 103.043 298.588 102.776C298.14 102.509 297.622 102.376 297.036 102.376C296.46 102.376 295.942 102.509 295.484 102.776C295.025 103.043 294.668 103.416 294.412 103.896C294.156 104.376 294.028 104.925 294.028 105.544V105.72C294.028 106.36 294.166 106.925 294.444 107.416C294.732 107.896 295.126 108.275 295.628 108.552C296.14 108.819 296.721 108.952 297.372 108.952C297.884 108.952 298.358 108.861 298.796 108.68C299.244 108.499 299.628 108.221 299.948 107.848L300.588 108.584C300.214 109.032 299.745 109.373 299.18 109.608C298.625 109.843 298.012 109.96 297.34 109.96ZM307.716 101.4C308.398 101.4 308.996 101.533 309.508 101.8C310.03 102.056 310.436 102.451 310.724 102.984C311.022 103.517 311.172 104.189 311.172 105V109.88H310.036V105.112C310.036 104.227 309.812 103.56 309.364 103.112C308.926 102.653 308.308 102.424 307.508 102.424C306.91 102.424 306.388 102.547 305.94 102.792C305.502 103.027 305.161 103.373 304.916 103.832C304.681 104.28 304.564 104.824 304.564 105.464V109.88H303.428V101.48H304.516V103.784L304.34 103.352C304.606 102.744 305.033 102.269 305.62 101.928C306.206 101.576 306.905 101.4 307.716 101.4ZM317.728 109.96C316.896 109.96 316.15 109.779 315.488 109.416C314.838 109.043 314.326 108.536 313.952 107.896C313.579 107.245 313.392 106.504 313.392 105.672C313.392 104.829 313.579 104.088 313.952 103.448C314.326 102.808 314.838 102.307 315.488 101.944C316.15 101.581 316.896 101.4 317.728 101.4C318.443 101.4 319.088 101.539 319.664 101.816C320.24 102.093 320.694 102.509 321.024 103.064L320.176 103.64C319.888 103.213 319.531 102.899 319.104 102.696C318.678 102.493 318.214 102.392 317.712 102.392C317.115 102.392 316.576 102.531 316.096 102.808C315.616 103.075 315.238 103.453 314.96 103.944C314.683 104.435 314.544 105.011 314.544 105.672C314.544 106.333 314.683 106.909 314.96 107.4C315.238 107.891 315.616 108.275 316.096 108.552C316.576 108.819 317.115 108.952 317.712 108.952C318.214 108.952 318.678 108.851 319.104 108.648C319.531 108.445 319.888 108.136 320.176 107.72L321.024 108.296C320.694 108.84 320.24 109.256 319.664 109.544C319.088 109.821 318.443 109.96 317.728 109.96ZM326.683 109.96C325.809 109.96 325.041 109.779 324.379 109.416C323.718 109.043 323.201 108.536 322.827 107.896C322.454 107.245 322.267 106.504 322.267 105.672C322.267 104.84 322.443 104.104 322.795 103.464C323.158 102.824 323.649 102.323 324.267 101.96C324.897 101.587 325.601 101.4 326.379 101.4C327.169 101.4 327.867 101.581 328.475 101.944C329.094 102.296 329.579 102.797 329.931 103.448C330.283 104.088 330.459 104.829 330.459 105.672C330.459 105.725 330.454 105.784 330.443 105.848C330.443 105.901 330.443 105.96 330.443 106.024H323.131V105.176H329.835L329.387 105.512C329.387 104.904 329.254 104.365 328.987 103.896C328.731 103.416 328.379 103.043 327.931 102.776C327.483 102.509 326.966 102.376 326.379 102.376C325.803 102.376 325.286 102.509 324.827 102.776C324.369 103.043 324.011 103.416 323.755 103.896C323.499 104.376 323.371 104.925 323.371 105.544V105.72C323.371 106.36 323.51 106.925 323.787 107.416C324.075 107.896 324.47 108.275 324.971 108.552C325.483 108.819 326.065 108.952 326.715 108.952C327.227 108.952 327.702 108.861 328.139 108.68C328.587 108.499 328.971 108.221 329.291 107.848L329.931 108.584C329.558 109.032 329.089 109.373 328.523 109.608C327.969 109.843 327.355 109.96 326.683 109.96ZM342.223 109.88V108.024L342.175 107.72V104.616C342.175 103.901 341.972 103.352 341.567 102.968C341.172 102.584 340.58 102.392 339.791 102.392C339.247 102.392 338.73 102.483 338.239 102.664C337.748 102.845 337.332 103.085 336.991 103.384L336.479 102.536C336.906 102.173 337.418 101.896 338.015 101.704C338.612 101.501 339.242 101.4 339.903 101.4C340.991 101.4 341.828 101.672 342.415 102.216C343.012 102.749 343.311 103.565 343.311 104.664V109.88H342.223ZM339.327 109.96C338.698 109.96 338.148 109.859 337.679 109.656C337.22 109.443 336.868 109.155 336.623 108.792C336.378 108.419 336.255 107.992 336.255 107.512C336.255 107.075 336.356 106.68 336.559 106.328C336.772 105.965 337.114 105.677 337.583 105.464C338.063 105.24 338.703 105.128 339.503 105.128H342.399V105.976H339.535C338.724 105.976 338.159 106.12 337.839 106.408C337.53 106.696 337.375 107.053 337.375 107.48C337.375 107.96 337.562 108.344 337.935 108.632C338.308 108.92 338.831 109.064 339.503 109.064C340.143 109.064 340.692 108.92 341.151 108.632C341.62 108.333 341.962 107.907 342.175 107.352L342.431 108.136C342.218 108.691 341.844 109.133 341.311 109.464C340.788 109.795 340.127 109.96 339.327 109.96ZM349.053 109.96C348.263 109.96 347.655 109.747 347.229 109.32C346.802 108.893 346.589 108.291 346.589 107.512V99.624H347.725V107.448C347.725 107.939 347.847 108.317 348.093 108.584C348.349 108.851 348.711 108.984 349.181 108.984C349.682 108.984 350.098 108.84 350.429 108.552L350.829 109.368C350.605 109.571 350.333 109.72 350.013 109.816C349.703 109.912 349.383 109.96 349.053 109.96ZM345.085 102.424V101.48H350.285V102.424H345.085ZM361.836 109.976C360.407 109.976 359.281 109.565 358.46 108.744C357.639 107.923 357.228 106.707 357.228 105.096V98.68H358.412V105.048C358.412 106.371 358.711 107.347 359.308 107.976C359.905 108.605 360.748 108.92 361.836 108.92C362.935 108.92 363.783 108.605 364.38 107.976C364.977 107.347 365.276 106.371 365.276 105.048V98.68H366.428V105.096C366.428 106.707 366.017 107.923 365.196 108.744C364.385 109.565 363.265 109.976 361.836 109.976ZM373.084 109.976C372.252 109.976 371.452 109.843 370.684 109.576C369.927 109.299 369.34 108.947 368.924 108.52L369.388 107.608C369.783 107.992 370.311 108.317 370.972 108.584C371.644 108.84 372.348 108.968 373.084 108.968C373.788 108.968 374.359 108.883 374.796 108.712C375.244 108.531 375.569 108.291 375.772 107.992C375.985 107.693 376.092 107.363 376.092 107C376.092 106.563 375.964 106.211 375.708 105.944C375.463 105.677 375.137 105.469 374.732 105.32C374.327 105.16 373.879 105.021 373.388 104.904C372.897 104.787 372.407 104.664 371.916 104.536C371.425 104.397 370.972 104.216 370.556 103.992C370.151 103.768 369.82 103.475 369.564 103.112C369.319 102.739 369.196 102.253 369.196 101.656C369.196 101.101 369.34 100.595 369.628 100.136C369.927 99.6667 370.38 99.2933 370.988 99.016C371.596 98.728 372.375 98.584 373.324 98.584C373.953 98.584 374.577 98.6747 375.196 98.856C375.815 99.0267 376.348 99.2667 376.796 99.576L376.396 100.52C375.916 100.2 375.404 99.9653 374.86 99.816C374.327 99.6667 373.809 99.592 373.308 99.592C372.636 99.592 372.081 99.6827 371.644 99.864C371.207 100.045 370.881 100.291 370.668 100.6C370.465 100.899 370.364 101.24 370.364 101.624C370.364 102.061 370.487 102.413 370.732 102.68C370.988 102.947 371.319 103.155 371.724 103.304C372.14 103.453 372.593 103.587 373.084 103.704C373.575 103.821 374.06 103.949 374.54 104.088C375.031 104.227 375.479 104.408 375.884 104.632C376.3 104.845 376.631 105.133 376.876 105.496C377.132 105.859 377.26 106.333 377.26 106.92C377.26 107.464 377.111 107.971 376.812 108.44C376.513 108.899 376.055 109.272 375.436 109.56C374.828 109.837 374.044 109.976 373.084 109.976ZM380.896 104.104H386.816V105.128H380.896V104.104ZM381.024 109.88H379.84V98.68H387.52V99.704H381.024V109.88Z" fill="black"/>
</g>
</g>
</g>
</g>
<path d="M1.35227 12.3239V10.1364H16.625V12.3239H10.2216V30.5H7.75568V12.3239H1.35227ZM22.4592 21.3125V30.5H20.1126V10.1364H22.4592V17.6136H22.658C23.016 16.8248 23.5529 16.1984 24.2688 15.7344C24.9914 15.2637 25.9525 15.0284 27.1523 15.0284C28.1931 15.0284 29.1045 15.2372 29.8867 15.6548C30.6689 16.0658 31.2755 16.6989 31.7063 17.554C32.1438 18.4025 32.3626 19.483 32.3626 20.7955V30.5H30.016V20.9545C30.016 19.7415 29.7011 18.8035 29.0714 18.1406C28.4483 17.4711 27.5832 17.1364 26.4762 17.1364C25.7073 17.1364 25.0179 17.2988 24.408 17.6236C23.8048 17.9484 23.3275 18.4223 22.9762 19.0455C22.6315 19.6686 22.4592 20.4242 22.4592 21.3125ZM43.0589 30.8182C41.5874 30.8182 40.3179 30.4934 39.2507 29.8438C38.1901 29.1875 37.3714 28.2727 36.7947 27.0994C36.2247 25.9195 35.9396 24.5473 35.9396 22.983C35.9396 21.4186 36.2247 20.0398 36.7947 18.8466C37.3714 17.6468 38.1735 16.7121 39.201 16.0426C40.2351 15.3665 41.4415 15.0284 42.8203 15.0284C43.6158 15.0284 44.4013 15.161 45.1768 15.4261C45.9524 15.6913 46.6584 16.1222 47.2947 16.7188C47.9311 17.3087 48.4382 18.0909 48.8161 19.0653C49.1939 20.0398 49.3828 21.2396 49.3828 22.6648V23.6591H37.6101V21.6307H46.9964C46.9964 20.7689 46.8241 20 46.4794 19.3239C46.1413 18.6477 45.6574 18.1141 45.0277 17.723C44.4046 17.3319 43.6688 17.1364 42.8203 17.1364C41.8857 17.1364 41.0769 17.3684 40.3942 17.8324C39.718 18.2898 39.1977 18.8864 38.8331 19.6222C38.4685 20.358 38.2862 21.1468 38.2862 21.9886V23.3409C38.2862 24.4943 38.4851 25.4721 38.8828 26.2741C39.2872 27.0696 39.8473 27.6761 40.5632 28.0938C41.2791 28.5047 42.111 28.7102 43.0589 28.7102C43.6754 28.7102 44.2322 28.6241 44.7294 28.4517C45.2332 28.2727 45.6674 28.0076 46.032 27.6562C46.3965 27.2983 46.6783 26.8542 46.8771 26.3239L49.1442 26.9602C48.9055 27.7292 48.5045 28.4053 47.9411 28.9886C47.3776 29.5653 46.6816 30.0161 45.853 30.3409C45.0244 30.6591 44.093 30.8182 43.0589 30.8182ZM67.4297 30.5H61.1456V10.1364H67.7081C69.6835 10.1364 71.3738 10.544 72.7791 11.3594C74.1844 12.1681 75.2616 13.3314 76.0107 14.8494C76.7597 16.3608 77.1342 18.1705 77.1342 20.2784C77.1342 22.3996 76.7564 24.2259 76.0007 25.7571C75.245 27.2817 74.1446 28.455 72.6996 29.277C71.2545 30.0923 69.4979 30.5 67.4297 30.5ZM63.6115 28.3125H67.2706C68.9543 28.3125 70.3497 27.9877 71.4567 27.3381C72.5637 26.6884 73.389 25.7637 73.9325 24.5639C74.4761 23.3641 74.7479 21.9356 74.7479 20.2784C74.7479 18.6345 74.4794 17.2192 73.9425 16.0327C73.4055 14.8395 72.6035 13.9247 71.5362 13.2884C70.469 12.6454 69.1399 12.3239 67.549 12.3239H63.6115V28.3125ZM87.157 30.8182C85.7782 30.8182 84.5684 30.4901 83.5277 29.8338C82.4936 29.1776 81.6849 28.2595 81.1016 27.0795C80.5249 25.8996 80.2365 24.5208 80.2365 22.9432C80.2365 21.3523 80.5249 19.9635 81.1016 18.777C81.6849 17.5904 82.4936 16.669 83.5277 16.0128C84.5684 15.3565 85.7782 15.0284 87.157 15.0284C88.5357 15.0284 89.7422 15.3565 90.7763 16.0128C91.817 16.669 92.6257 17.5904 93.2024 18.777C93.7857 19.9635 94.0774 21.3523 94.0774 22.9432C94.0774 24.5208 93.7857 25.8996 93.2024 27.0795C92.6257 28.2595 91.817 29.1776 90.7763 29.8338C89.7422 30.4901 88.5357 30.8182 87.157 30.8182ZM87.157 28.7102C88.2043 28.7102 89.0661 28.4418 89.7422 27.9048C90.4183 27.3679 90.9188 26.6619 91.2436 25.7869C91.5684 24.9119 91.7308 23.964 91.7308 22.9432C91.7308 21.9223 91.5684 20.9711 91.2436 20.0895C90.9188 19.2079 90.4183 18.4953 89.7422 17.9517C89.0661 17.4081 88.2043 17.1364 87.157 17.1364C86.1096 17.1364 85.2479 17.4081 84.5717 17.9517C83.8956 18.4953 83.3951 19.2079 83.0703 20.0895C82.7455 20.9711 82.5831 21.9223 82.5831 22.9432C82.5831 23.964 82.7455 24.9119 83.0703 25.7869C83.3951 26.6619 83.8956 27.3679 84.5717 27.9048C85.2479 28.4418 86.1096 28.7102 87.157 28.7102ZM100.006 21.3125V30.5H97.6594V15.2273H99.9265V17.6136H100.125C100.483 16.8381 101.027 16.215 101.756 15.7443C102.485 15.267 103.426 15.0284 104.58 15.0284C105.614 15.0284 106.519 15.2405 107.294 15.6648C108.07 16.0824 108.673 16.7188 109.104 17.5739C109.535 18.4223 109.75 19.4962 109.75 20.7955V30.5H107.404V20.9545C107.404 19.7547 107.092 18.8201 106.469 18.1506C105.846 17.4744 104.991 17.1364 103.904 17.1364C103.155 17.1364 102.485 17.2988 101.895 17.6236C101.312 17.9484 100.851 18.4223 100.513 19.0455C100.175 19.6686 100.006 20.4242 100.006 21.3125ZM124.857 18.6477L122.749 19.2443C122.616 18.893 122.42 18.5516 122.162 18.2202C121.91 17.8821 121.565 17.6037 121.128 17.3849C120.69 17.1662 120.13 17.0568 119.447 17.0568C118.513 17.0568 117.734 17.2723 117.111 17.7031C116.494 18.1274 116.186 18.6676 116.186 19.3239C116.186 19.9072 116.398 20.3679 116.822 20.706C117.247 21.044 117.91 21.3258 118.811 21.5511L121.078 22.108C122.444 22.4394 123.461 22.9465 124.131 23.6293C124.8 24.3054 125.135 25.1771 125.135 26.2443C125.135 27.1193 124.883 27.9015 124.379 28.5909C123.882 29.2803 123.186 29.8239 122.291 30.2216C121.396 30.6193 120.356 30.8182 119.169 30.8182C117.611 30.8182 116.322 30.4801 115.301 29.804C114.28 29.1278 113.634 28.1402 113.362 26.8409L115.589 26.2841C115.802 27.1061 116.203 27.7225 116.793 28.1335C117.389 28.5445 118.168 28.75 119.129 28.75C120.223 28.75 121.091 28.518 121.734 28.054C122.384 27.5833 122.709 27.0199 122.709 26.3636C122.709 25.8333 122.523 25.3892 122.152 25.0312C121.781 24.6667 121.211 24.3949 120.442 24.2159L117.896 23.6193C116.498 23.2879 115.47 22.7741 114.814 22.0781C114.164 21.3755 113.839 20.4972 113.839 19.4432C113.839 18.5814 114.081 17.8191 114.565 17.1562C115.056 16.4934 115.722 15.973 116.564 15.5952C117.412 15.2173 118.374 15.0284 119.447 15.0284C120.959 15.0284 122.145 15.3598 123.007 16.0227C123.875 16.6856 124.492 17.5606 124.857 18.6477ZM130.377 30.6591C129.887 30.6591 129.466 30.4834 129.115 30.1321C128.763 29.7808 128.588 29.3598 128.588 28.8693C128.588 28.3788 128.763 27.9579 129.115 27.6065C129.466 27.2552 129.887 27.0795 130.377 27.0795C130.868 27.0795 131.289 27.2552 131.64 27.6065C131.992 27.9579 132.167 28.3788 132.167 28.8693C132.167 29.1941 132.084 29.4924 131.919 29.7642C131.76 30.036 131.544 30.2547 131.272 30.4205C131.007 30.5795 130.709 30.6591 130.377 30.6591ZM130.377 19.3239C129.887 19.3239 129.466 19.1482 129.115 18.7969C128.763 18.4455 128.588 18.0246 128.588 17.5341C128.588 17.0436 128.763 16.6226 129.115 16.2713C129.466 15.92 129.887 15.7443 130.377 15.7443C130.868 15.7443 131.289 15.92 131.64 16.2713C131.992 16.6226 132.167 17.0436 132.167 17.5341C132.167 17.8589 132.084 18.1572 131.919 18.429C131.76 18.7008 131.544 18.9195 131.272 19.0852C131.007 19.2443 130.709 19.3239 130.377 19.3239ZM145.407 30.5H142.821L150.299 10.1364H152.844L160.321 30.5H157.736L151.651 13.358H151.492L145.407 30.5ZM146.361 22.5455H156.782V24.733H146.361V22.5455ZM171.368 30.5V10.1364H173.834V28.3125H183.3V30.5H171.368ZM193.203 30.8182C191.732 30.8182 190.462 30.4934 189.395 29.8438C188.335 29.1875 187.516 28.2727 186.939 27.0994C186.369 25.9195 186.084 24.5473 186.084 22.983C186.084 21.4186 186.369 20.0398 186.939 18.8466C187.516 17.6468 188.318 16.7121 189.346 16.0426C190.38 15.3665 191.586 15.0284 192.965 15.0284C193.76 15.0284 194.546 15.161 195.321 15.4261C196.097 15.6913 196.803 16.1222 197.439 16.7188C198.076 17.3087 198.583 18.0909 198.961 19.0653C199.338 20.0398 199.527 21.2396 199.527 22.6648V23.6591H187.755V21.6307H197.141C197.141 20.7689 196.969 20 196.624 19.3239C196.286 18.6477 195.802 18.1141 195.172 17.723C194.549 17.3319 193.813 17.1364 192.965 17.1364C192.03 17.1364 191.221 17.3684 190.539 17.8324C189.863 18.2898 189.342 18.8864 188.978 19.6222C188.613 20.358 188.431 21.1468 188.431 21.9886V23.3409C188.431 24.4943 188.63 25.4721 189.027 26.2741C189.432 27.0696 189.992 27.6761 190.708 28.0938C191.424 28.5047 192.256 28.7102 193.203 28.7102C193.82 28.7102 194.377 28.6241 194.874 28.4517C195.378 28.2727 195.812 28.0076 196.176 27.6562C196.541 27.2983 196.823 26.8542 197.022 26.3239L199.289 26.9602C199.05 27.7292 198.649 28.4053 198.086 28.9886C197.522 29.5653 196.826 30.0161 195.998 30.3409C195.169 30.6591 194.238 30.8182 193.203 30.8182ZM209.262 36.5455C208.128 36.5455 207.154 36.3996 206.338 36.108C205.523 35.8229 204.844 35.4451 204.3 34.9744C203.763 34.5104 203.336 34.0133 203.017 33.483L204.887 32.1705C205.099 32.4489 205.367 32.767 205.692 33.125C206.017 33.4896 206.461 33.8045 207.025 34.0696C207.595 34.3414 208.34 34.4773 209.262 34.4773C210.495 34.4773 211.512 34.179 212.314 33.5824C213.116 32.9858 213.517 32.0511 213.517 30.7784V27.6761H213.319C213.146 27.9545 212.901 28.2992 212.583 28.7102C212.271 29.1146 211.82 29.4759 211.23 29.794C210.647 30.1056 209.858 30.2614 208.864 30.2614C207.631 30.2614 206.524 29.9697 205.543 29.3864C204.569 28.803 203.796 27.9545 203.226 26.8409C202.663 25.7273 202.381 24.375 202.381 22.7841C202.381 21.2197 202.656 19.8575 203.206 18.6974C203.757 17.5308 204.522 16.6293 205.503 15.9929C206.484 15.3499 207.618 15.0284 208.904 15.0284C209.898 15.0284 210.687 15.1941 211.27 15.5256C211.86 15.8504 212.311 16.2216 212.623 16.6392C212.941 17.0502 213.186 17.3883 213.358 17.6534H213.597V15.2273H215.864V30.9375C215.864 32.25 215.566 33.3172 214.969 34.1392C214.379 34.9678 213.584 35.5743 212.583 35.9588C211.588 36.3499 210.481 36.5455 209.262 36.5455ZM209.182 28.1534C210.123 28.1534 210.919 27.938 211.569 27.5071C212.218 27.0762 212.712 26.4564 213.05 25.6477C213.388 24.839 213.557 23.8712 213.557 22.7443C213.557 21.6439 213.391 20.6728 213.06 19.831C212.729 18.9891 212.238 18.3295 211.588 17.8523C210.939 17.375 210.137 17.1364 209.182 17.1364C208.188 17.1364 207.359 17.3883 206.696 17.892C206.04 18.3958 205.546 19.072 205.215 19.9205C204.89 20.7689 204.728 21.7102 204.728 22.7443C204.728 23.8049 204.893 24.7429 205.225 25.5582C205.563 26.367 206.06 27.0033 206.716 27.4673C207.379 27.9247 208.201 28.1534 209.182 28.1534ZM224.654 30.858C223.686 30.858 222.808 30.6757 222.019 30.3111C221.23 29.9399 220.604 29.4062 220.14 28.7102C219.676 28.0076 219.444 27.1591 219.444 26.1648C219.444 25.2898 219.616 24.5805 219.961 24.0369C220.305 23.4867 220.766 23.0559 221.343 22.7443C221.919 22.4328 222.556 22.2008 223.252 22.0483C223.954 21.8892 224.66 21.7633 225.37 21.6705C226.298 21.5511 227.05 21.4616 227.627 21.402C228.21 21.3357 228.634 21.2263 228.9 21.0739C229.171 20.9214 229.307 20.6562 229.307 20.2784V20.1989C229.307 19.2178 229.039 18.4555 228.502 17.9119C227.971 17.3684 227.166 17.0966 226.086 17.0966C224.965 17.0966 224.087 17.3419 223.451 17.8324C222.814 18.3229 222.367 18.8466 222.108 19.4034L219.881 18.608C220.279 17.6799 220.809 16.9574 221.472 16.4403C222.141 15.9167 222.871 15.5521 223.659 15.3466C224.455 15.1345 225.237 15.0284 226.006 15.0284C226.497 15.0284 227.06 15.0881 227.696 15.2074C228.339 15.3201 228.959 15.5554 229.556 15.9134C230.159 16.2713 230.659 16.8116 231.057 17.5341C231.455 18.2566 231.654 19.2244 231.654 20.4375V30.5H229.307V28.4318H229.188C229.029 28.7633 228.764 29.1179 228.392 29.4957C228.021 29.8736 227.527 30.1951 226.911 30.4602C226.294 30.7254 225.542 30.858 224.654 30.858ZM225.012 28.75C225.94 28.75 226.722 28.5677 227.358 28.2031C228.001 27.8385 228.485 27.3679 228.81 26.7912C229.141 26.2145 229.307 25.608 229.307 24.9716V22.8239C229.208 22.9432 228.989 23.0526 228.651 23.152C228.319 23.2448 227.935 23.3277 227.498 23.4006C227.067 23.4669 226.646 23.5265 226.235 23.5795C225.83 23.6259 225.502 23.6657 225.25 23.6989C224.641 23.7784 224.07 23.9077 223.54 24.0866C223.016 24.259 222.592 24.5208 222.267 24.8722C221.949 25.2169 221.79 25.6875 221.79 26.2841C221.79 27.0994 222.092 27.7159 222.695 28.1335C223.305 28.5445 224.077 28.75 225.012 28.75ZM242.141 30.8182C240.71 30.8182 239.477 30.4801 238.442 29.804C237.408 29.1278 236.613 28.1965 236.056 27.0099C235.499 25.8234 235.221 24.4678 235.221 22.9432C235.221 21.392 235.506 20.0232 236.076 18.8366C236.653 17.6435 237.455 16.7121 238.482 16.0426C239.516 15.3665 240.723 15.0284 242.102 15.0284C243.175 15.0284 244.143 15.2273 245.005 15.625C245.867 16.0227 246.573 16.5795 247.123 17.2955C247.673 18.0114 248.014 18.8466 248.147 19.8011H245.8C245.621 19.1051 245.224 18.4886 244.607 17.9517C243.997 17.4081 243.175 17.1364 242.141 17.1364C241.227 17.1364 240.424 17.375 239.735 17.8523C239.052 18.3229 238.519 18.9891 238.134 19.8509C237.756 20.706 237.567 21.7102 237.567 22.8636C237.567 24.0436 237.753 25.071 238.124 25.946C238.502 26.821 239.032 27.5005 239.715 27.9844C240.405 28.4683 241.213 28.7102 242.141 28.7102C242.751 28.7102 243.305 28.6042 243.802 28.392C244.299 28.1799 244.72 27.875 245.065 27.4773C245.409 27.0795 245.655 26.6023 245.8 26.0455H248.147C248.014 26.947 247.686 27.759 247.163 28.4815C246.646 29.1974 245.96 29.7675 245.104 30.1918C244.256 30.6094 243.268 30.8182 242.141 30.8182ZM253.089 36.2273C252.691 36.2273 252.336 36.1941 252.025 36.1278C251.713 36.0682 251.498 36.0085 251.379 35.9489L251.975 33.8807C252.545 34.0265 253.049 34.0795 253.487 34.0398C253.924 34 254.312 33.8045 254.65 33.4531C254.995 33.1084 255.309 32.5483 255.594 31.7727L256.032 30.5795L250.384 15.2273H252.93L257.146 27.3977H257.305L261.521 15.2273H264.066L257.583 32.7273C257.291 33.5161 256.93 34.169 256.499 34.6861C256.068 35.2098 255.568 35.5975 254.998 35.8494C254.434 36.1013 253.798 36.2273 253.089 36.2273ZM281.243 30.8182C279.864 30.8182 278.654 30.4901 277.614 29.8338C276.58 29.1776 275.771 28.2595 275.188 27.0795C274.611 25.8996 274.322 24.5208 274.322 22.9432C274.322 21.3523 274.611 19.9635 275.188 18.777C275.771 17.5904 276.58 16.669 277.614 16.0128C278.654 15.3565 279.864 15.0284 281.243 15.0284C282.622 15.0284 283.828 15.3565 284.862 16.0128C285.903 16.669 286.712 17.5904 287.288 18.777C287.872 19.9635 288.163 21.3523 288.163 22.9432C288.163 24.5208 287.872 25.8996 287.288 27.0795C286.712 28.2595 285.903 29.1776 284.862 29.8338C283.828 30.4901 282.622 30.8182 281.243 30.8182ZM281.243 28.7102C282.29 28.7102 283.152 28.4418 283.828 27.9048C284.504 27.3679 285.005 26.6619 285.33 25.7869C285.654 24.9119 285.817 23.964 285.817 22.9432C285.817 21.9223 285.654 20.9711 285.33 20.0895C285.005 19.2079 284.504 18.4953 283.828 17.9517C283.152 17.4081 282.29 17.1364 281.243 17.1364C280.196 17.1364 279.334 17.4081 278.658 17.9517C277.982 18.4953 277.481 19.2079 277.156 20.0895C276.831 20.9711 276.669 21.9223 276.669 22.9432C276.669 23.964 276.831 24.9119 277.156 25.7869C277.481 26.6619 277.982 27.3679 278.658 27.9048C279.334 28.4418 280.196 28.7102 281.243 28.7102ZM298.547 15.2273V17.2159H290.314V15.2273H298.547ZM292.779 30.5V13.1193C292.779 12.2443 292.985 11.5152 293.396 10.9318C293.807 10.3485 294.341 9.91098 294.997 9.61932C295.653 9.32765 296.346 9.18182 297.075 9.18182C297.652 9.18182 298.122 9.22822 298.487 9.32102C298.851 9.41382 299.123 9.5 299.302 9.57954L298.626 11.608C298.507 11.5682 298.341 11.5185 298.129 11.4588C297.923 11.3991 297.652 11.3693 297.314 11.3693C296.538 11.3693 295.978 11.5649 295.633 11.956C295.295 12.3471 295.126 12.9205 295.126 13.6761V30.5H292.779ZM310.864 30.5H308.278L315.756 10.1364H318.301L325.778 30.5H323.193L317.108 13.358H316.949L310.864 30.5ZM311.818 22.5455H322.239V24.733H311.818V22.5455ZM334.317 15.2273V17.2159H326.402V15.2273H334.317ZM328.709 11.5682H331.056V26.125C331.056 26.7879 331.152 27.285 331.344 27.6165C331.543 27.9413 331.795 28.16 332.1 28.2727C332.411 28.3788 332.739 28.4318 333.084 28.4318C333.343 28.4318 333.555 28.4186 333.721 28.392C333.886 28.3589 334.019 28.3324 334.118 28.3125L334.596 30.4205C334.436 30.4801 334.214 30.5398 333.929 30.5994C333.644 30.6657 333.283 30.6989 332.846 30.6989C332.183 30.6989 331.533 30.5563 330.897 30.2713C330.267 29.9863 329.743 29.5521 329.326 28.9688C328.915 28.3854 328.709 27.6496 328.709 26.7614V11.5682ZM340.522 21.3125V30.5H338.175V10.1364H340.522V17.6136H340.721C341.078 16.8248 341.615 16.1984 342.331 15.7344C343.054 15.2637 344.015 15.0284 345.215 15.0284C346.256 15.0284 347.167 15.2372 347.949 15.6548C348.731 16.0658 349.338 16.6989 349.769 17.554C350.206 18.4025 350.425 19.483 350.425 20.7955V30.5H348.078V20.9545C348.078 19.7415 347.764 18.8035 347.134 18.1406C346.511 17.4711 345.646 17.1364 344.539 17.1364C343.77 17.1364 343.08 17.2988 342.471 17.6236C341.867 17.9484 341.39 18.4223 341.039 19.0455C340.694 19.6686 340.522 20.4242 340.522 21.3125ZM357.065 10.1364V30.5H354.718V10.1364H357.065ZM367.766 30.8182C366.294 30.8182 365.025 30.4934 363.958 29.8438C362.897 29.1875 362.078 28.2727 361.502 27.0994C360.932 25.9195 360.647 24.5473 360.647 22.983C360.647 21.4186 360.932 20.0398 361.502 18.8466C362.078 17.6468 362.881 16.7121 363.908 16.0426C364.942 15.3665 366.149 15.0284 367.527 15.0284C368.323 15.0284 369.108 15.161 369.884 15.4261C370.659 15.6913 371.365 16.1222 372.002 16.7188C372.638 17.3087 373.145 18.0909 373.523 19.0653C373.901 20.0398 374.09 21.2396 374.09 22.6648V23.6591H362.317V21.6307H371.703C371.703 20.7689 371.531 20 371.186 19.3239C370.848 18.6477 370.364 18.1141 369.735 17.723C369.112 17.3319 368.376 17.1364 367.527 17.1364C366.593 17.1364 365.784 17.3684 365.101 17.8324C364.425 18.2898 363.905 18.8864 363.54 19.6222C363.176 20.358 362.993 21.1468 362.993 21.9886V23.3409C362.993 24.4943 363.192 25.4721 363.59 26.2741C363.994 27.0696 364.554 27.6761 365.27 28.0938C365.986 28.5047 366.818 28.7102 367.766 28.7102C368.382 28.7102 368.939 28.6241 369.436 28.4517C369.94 28.2727 370.374 28.0076 370.739 27.6562C371.104 27.2983 371.385 26.8542 371.584 26.3239L373.851 26.9602C373.613 27.7292 373.212 28.4053 372.648 28.9886C372.085 29.5653 371.389 30.0161 370.56 30.3409C369.731 30.6591 368.8 30.8182 367.766 30.8182ZM384.301 15.2273V17.2159H376.387V15.2273H384.301ZM378.694 11.5682H381.04V26.125C381.04 26.7879 381.136 27.285 381.328 27.6165C381.527 27.9413 381.779 28.16 382.084 28.2727C382.396 28.3788 382.724 28.4318 383.069 28.4318C383.327 28.4318 383.539 28.4186 383.705 28.392C383.871 28.3589 384.003 28.3324 384.103 28.3125L384.58 30.4205C384.421 30.4801 384.199 30.5398 383.914 30.5994C383.629 30.6657 383.267 30.6989 382.83 30.6989C382.167 30.6989 381.517 30.5563 380.881 30.2713C380.251 29.9863 379.728 29.5521 379.31 28.9688C378.899 28.3854 378.694 27.6496 378.694 26.7614V11.5682ZM387.831 30.5V15.2273H390.178V30.5H387.831ZM389.025 12.6818C388.567 12.6818 388.173 12.526 387.841 12.2145C387.516 11.9029 387.354 11.5284 387.354 11.0909C387.354 10.6534 387.516 10.2789 387.841 9.96733C388.173 9.65578 388.567 9.5 389.025 9.5C389.482 9.5 389.873 9.65578 390.198 9.96733C390.529 10.2789 390.695 10.6534 390.695 11.0909C390.695 11.5284 390.529 11.9029 390.198 12.2145C389.873 12.526 389.482 12.6818 389.025 12.6818ZM400.68 30.8182C399.249 30.8182 398.016 30.4801 396.982 29.804C395.947 29.1278 395.152 28.1965 394.595 27.0099C394.038 25.8234 393.76 24.4678 393.76 22.9432C393.76 21.392 394.045 20.0232 394.615 18.8366C395.192 17.6435 395.994 16.7121 397.021 16.0426C398.055 15.3665 399.262 15.0284 400.641 15.0284C401.714 15.0284 402.682 15.2273 403.544 15.625C404.406 16.0227 405.112 16.5795 405.662 17.2955C406.212 18.0114 406.554 18.8466 406.686 19.8011H404.339C404.161 19.1051 403.763 18.4886 403.146 17.9517C402.536 17.4081 401.714 17.1364 400.68 17.1364C399.766 17.1364 398.964 17.375 398.274 17.8523C397.591 18.3229 397.058 18.9891 396.673 19.8509C396.295 20.706 396.107 21.7102 396.107 22.8636C396.107 24.0436 396.292 25.071 396.663 25.946C397.041 26.821 397.571 27.5005 398.254 27.9844C398.944 28.4683 399.752 28.7102 400.68 28.7102C401.29 28.7102 401.844 28.6042 402.341 28.392C402.838 28.1799 403.259 27.875 403.604 27.4773C403.948 27.0795 404.194 26.6023 404.339 26.0455H406.686C406.554 26.947 406.225 27.759 405.702 28.4815C405.185 29.1974 404.499 29.7675 403.643 30.1918C402.795 30.6094 401.807 30.8182 400.68 30.8182ZM2.46591 69.5V49.1364H14.7557V51.3239H4.93182V58.2045H14.1193V60.392H4.93182V67.3125H14.9148V69.5H2.46591ZM20.6321 54.2273L24.2912 60.4716L27.9503 54.2273H30.6548L25.723 61.8636L30.6548 69.5H27.9503L24.2912 63.5739L20.6321 69.5H17.9276L22.7798 61.8636L17.9276 54.2273H20.6321ZM39.5788 69.8182C38.147 69.8182 36.9141 69.4801 35.88 68.804C34.8459 68.1278 34.0504 67.1965 33.4936 66.0099C32.9368 64.8234 32.6584 63.4678 32.6584 61.9432C32.6584 60.392 32.9434 59.0232 33.5135 57.8366C34.0902 56.6435 34.8923 55.7121 35.9197 55.0426C36.9538 54.3665 38.1603 54.0284 39.5391 54.0284C40.6129 54.0284 41.5807 54.2273 42.4425 54.625C43.3042 55.0227 44.0102 55.5795 44.5604 56.2955C45.1106 57.0114 45.4519 57.8466 45.5845 58.8011H43.2379C43.0589 58.1051 42.6612 57.4886 42.0447 56.9517C41.4349 56.4081 40.6129 56.1364 39.5788 56.1364C38.6641 56.1364 37.862 56.375 37.1726 56.8523C36.4898 57.3229 35.9562 57.9891 35.5717 58.8509C35.1939 59.706 35.005 60.7102 35.005 61.8636C35.005 63.0436 35.1906 64.071 35.5618 64.946C35.9396 65.821 36.4699 66.5005 37.1527 66.9844C37.8421 67.4683 38.6508 67.7102 39.5788 67.7102C40.1887 67.7102 40.7422 67.6042 41.2393 67.392C41.7365 67.1799 42.1574 66.875 42.5021 66.4773C42.8468 66.0795 43.0921 65.6023 43.2379 65.0455H45.5845C45.4519 65.947 45.1238 66.759 44.6001 67.4815C44.0831 68.1974 43.397 68.7675 42.5419 69.1918C41.6934 69.6094 40.7057 69.8182 39.5788 69.8182ZM55.4183 69.8182C53.9467 69.8182 52.6773 69.4934 51.6101 68.8438C50.5495 68.1875 49.7308 67.2727 49.1541 66.0994C48.584 64.9195 48.299 63.5473 48.299 61.983C48.299 60.4186 48.584 59.0398 49.1541 57.8466C49.7308 56.6468 50.5329 55.7121 51.5604 55.0426C52.5945 54.3665 53.8009 54.0284 55.1797 54.0284C55.9751 54.0284 56.7607 54.161 57.5362 54.4261C58.3118 54.6913 59.0178 55.1222 59.6541 55.7188C60.2905 56.3087 60.7976 57.0909 61.1754 58.0653C61.5533 59.0398 61.7422 60.2396 61.7422 61.6648V62.6591H49.9695V60.6307H59.3558C59.3558 59.7689 59.1835 59 58.8388 58.3239C58.5007 57.6477 58.0168 57.1141 57.3871 56.723C56.764 56.3319 56.0282 56.1364 55.1797 56.1364C54.245 56.1364 53.4363 56.3684 52.7536 56.8324C52.0774 57.2898 51.5571 57.8864 51.1925 58.6222C50.8279 59.358 50.6456 60.1468 50.6456 60.9886V62.3409C50.6456 63.4943 50.8445 64.4721 51.2422 65.2741C51.6465 66.0696 52.2067 66.6761 52.9226 67.0938C53.6385 67.5047 54.4704 67.7102 55.4183 67.7102C56.0348 67.7102 56.5916 67.6241 57.0888 67.4517C57.5926 67.2727 58.0268 67.0076 58.3913 66.6562C58.7559 66.2983 59.0376 65.8542 59.2365 65.3239L61.5036 65.9602C61.2649 66.7292 60.8639 67.4053 60.3004 67.9886C59.737 68.5653 59.041 69.0161 58.2124 69.3409C57.3838 69.6591 56.4524 69.8182 55.4183 69.8182ZM67.6584 49.1364V69.5H65.3118V49.1364H67.6584ZM74.3029 49.1364V69.5H71.9563V49.1364H74.3029ZM85.0043 69.8182C83.5327 69.8182 82.2633 69.4934 81.196 68.8438C80.1354 68.1875 79.3168 67.2727 78.7401 66.0994C78.17 64.9195 77.8849 63.5473 77.8849 61.983C77.8849 60.4186 78.17 59.0398 78.7401 57.8466C79.3168 56.6468 80.1188 55.7121 81.1463 55.0426C82.1804 54.3665 83.3868 54.0284 84.7656 54.0284C85.5611 54.0284 86.3466 54.161 87.1222 54.4261C87.8977 54.6913 88.6037 55.1222 89.2401 55.7188C89.8764 56.3087 90.3835 57.0909 90.7614 58.0653C91.1392 59.0398 91.3281 60.2396 91.3281 61.6648V62.6591H79.5554V60.6307H88.9418C88.9418 59.7689 88.7694 59 88.4247 58.3239C88.0866 57.6477 87.6027 57.1141 86.973 56.723C86.3499 56.3319 85.6141 56.1364 84.7656 56.1364C83.831 56.1364 83.0223 56.3684 82.3395 56.8324C81.6634 57.2898 81.143 57.8864 80.7784 58.6222C80.4138 59.358 80.2315 60.1468 80.2315 60.9886V62.3409C80.2315 63.4943 80.4304 64.4721 80.8281 65.2741C81.2325 66.0696 81.7926 66.6761 82.5085 67.0938C83.2244 67.5047 84.0563 67.7102 85.0043 67.7102C85.6207 67.7102 86.1776 67.6241 86.6747 67.4517C87.1785 67.2727 87.6127 67.0076 87.9773 66.6562C88.3419 66.2983 88.6236 65.8542 88.8224 65.3239L91.0895 65.9602C90.8509 66.7292 90.4498 67.4053 89.8864 67.9886C89.3229 68.5653 88.6269 69.0161 87.7983 69.3409C86.9697 69.6591 86.0384 69.8182 85.0043 69.8182ZM97.2443 60.3125V69.5H94.8977V54.2273H97.1648V56.6136H97.3636C97.7216 55.8381 98.2652 55.215 98.9943 54.7443C99.7235 54.267 100.665 54.0284 101.818 54.0284C102.852 54.0284 103.757 54.2405 104.533 54.6648C105.308 55.0824 105.911 55.7188 106.342 56.5739C106.773 57.4223 106.989 58.4962 106.989 59.7955V69.5H104.642V59.9545C104.642 58.7547 104.33 57.8201 103.707 57.1506C103.084 56.4744 102.229 56.1364 101.142 56.1364C100.393 56.1364 99.7235 56.2988 99.1335 56.6236C98.5502 56.9484 98.0895 57.4223 97.7514 58.0455C97.4134 58.6686 97.2443 59.4242 97.2443 60.3125ZM117.481 69.8182C116.049 69.8182 114.816 69.4801 113.782 68.804C112.748 68.1278 111.953 67.1965 111.396 66.0099C110.839 64.8234 110.561 63.4678 110.561 61.9432C110.561 60.392 110.846 59.0232 111.416 57.8366C111.993 56.6435 112.795 55.7121 113.822 55.0426C114.856 54.3665 116.063 54.0284 117.441 54.0284C118.515 54.0284 119.483 54.2273 120.345 54.625C121.207 55.0227 121.913 55.5795 122.463 56.2955C123.013 57.0114 123.354 57.8466 123.487 58.8011H121.14C120.961 58.1051 120.564 57.4886 119.947 56.9517C119.337 56.4081 118.515 56.1364 117.481 56.1364C116.566 56.1364 115.764 56.375 115.075 56.8523C114.392 57.3229 113.859 57.9891 113.474 58.8509C113.096 59.706 112.907 60.7102 112.907 61.8636C112.907 63.0436 113.093 64.071 113.464 64.946C113.842 65.821 114.372 66.5005 115.055 66.9844C115.744 67.4683 116.553 67.7102 117.481 67.7102C118.091 67.7102 118.645 67.6042 119.142 67.392C119.639 67.1799 120.06 66.875 120.404 66.4773C120.749 66.0795 120.994 65.6023 121.14 65.0455H123.487C123.354 65.947 123.026 66.759 122.502 67.4815C121.985 68.1974 121.299 68.7675 120.444 69.1918C119.596 69.6094 118.608 69.8182 117.481 69.8182ZM133.321 69.8182C131.849 69.8182 130.58 69.4934 129.512 68.8438C128.452 68.1875 127.633 67.2727 127.056 66.0994C126.486 64.9195 126.201 63.5473 126.201 61.983C126.201 60.4186 126.486 59.0398 127.056 57.8466C127.633 56.6468 128.435 55.7121 129.463 55.0426C130.497 54.3665 131.703 54.0284 133.082 54.0284C133.877 54.0284 134.663 54.161 135.439 54.4261C136.214 54.6913 136.92 55.1222 137.556 55.7188C138.193 56.3087 138.7 57.0909 139.078 58.0653C139.456 59.0398 139.645 60.2396 139.645 61.6648V62.6591H127.872V60.6307H137.258C137.258 59.7689 137.086 59 136.741 58.3239C136.403 57.6477 135.919 57.1141 135.289 56.723C134.666 56.3319 133.931 56.1364 133.082 56.1364C132.147 56.1364 131.339 56.3684 130.656 56.8324C129.98 57.2898 129.459 57.8864 129.095 58.6222C128.73 59.358 128.548 60.1468 128.548 60.9886V62.3409C128.548 63.4943 128.747 64.4721 129.145 65.2741C129.549 66.0696 130.109 66.6761 130.825 67.0938C131.541 67.5047 132.373 67.7102 133.321 67.7102C133.937 67.7102 134.494 67.6241 134.991 67.4517C135.495 67.2727 135.929 67.0076 136.294 66.6562C136.658 66.2983 136.94 65.8542 137.139 65.3239L139.406 65.9602C139.167 66.7292 138.766 67.4053 138.203 67.9886C137.639 68.5653 136.943 69.0161 136.115 69.3409C135.286 69.6591 134.355 69.8182 133.321 69.8182ZM155.583 69.858C154.616 69.858 153.737 69.6757 152.949 69.3111C152.16 68.9399 151.533 68.4062 151.069 67.7102C150.605 67.0076 150.373 66.1591 150.373 65.1648C150.373 64.2898 150.546 63.5805 150.89 63.0369C151.235 62.4867 151.696 62.0559 152.272 61.7443C152.849 61.4328 153.485 61.2008 154.181 61.0483C154.884 60.8892 155.59 60.7633 156.299 60.6705C157.227 60.5511 157.98 60.4616 158.556 60.402C159.14 60.3357 159.564 60.2263 159.829 60.0739C160.101 59.9214 160.237 59.6562 160.237 59.2784V59.1989C160.237 58.2178 159.968 57.4555 159.431 56.9119C158.901 56.3684 158.096 56.0966 157.015 56.0966C155.895 56.0966 155.017 56.3419 154.38 56.8324C153.744 57.3229 153.297 57.8466 153.038 58.4034L150.811 57.608C151.208 56.6799 151.739 55.9574 152.402 55.4403C153.071 54.9167 153.8 54.5521 154.589 54.3466C155.385 54.1345 156.167 54.0284 156.936 54.0284C157.426 54.0284 157.99 54.0881 158.626 54.2074C159.269 54.3201 159.889 54.5554 160.485 54.9134C161.089 55.2713 161.589 55.8116 161.987 56.5341C162.385 57.2566 162.583 58.2244 162.583 59.4375V69.5H160.237V67.4318H160.118C159.958 67.7633 159.693 68.1179 159.322 68.4957C158.951 68.8736 158.457 69.1951 157.841 69.4602C157.224 69.7254 156.472 69.858 155.583 69.858ZM155.941 67.75C156.869 67.75 157.652 67.5677 158.288 67.2031C158.931 66.8385 159.415 66.3679 159.74 65.7912C160.071 65.2145 160.237 64.608 160.237 63.9716V61.8239C160.137 61.9432 159.919 62.0526 159.581 62.152C159.249 62.2448 158.865 62.3277 158.427 62.4006C157.996 62.4669 157.575 62.5265 157.164 62.5795C156.76 62.6259 156.432 62.6657 156.18 62.6989C155.57 62.7784 155 62.9077 154.47 63.0866C153.946 63.259 153.522 63.5208 153.197 63.8722C152.879 64.2169 152.72 64.6875 152.72 65.2841C152.72 66.0994 153.021 66.7159 153.625 67.1335C154.234 67.5445 155.007 67.75 155.941 67.75ZM173.509 54.2273V56.2159H165.594V54.2273H173.509ZM167.901 50.5682H170.247V65.125C170.247 65.7879 170.343 66.285 170.536 66.6165C170.734 66.9413 170.986 67.16 171.291 67.2727C171.603 67.3788 171.931 67.4318 172.276 67.4318C172.534 67.4318 172.746 67.4186 172.912 67.392C173.078 67.3589 173.21 67.3324 173.31 67.3125L173.787 69.4205C173.628 69.4801 173.406 69.5398 173.121 69.5994C172.836 69.6657 172.474 69.6989 172.037 69.6989C171.374 69.6989 170.724 69.5563 170.088 69.2713C169.458 68.9863 168.935 68.5521 168.517 67.9688C168.106 67.3854 167.901 66.6496 167.901 65.7614V50.5682ZM198.595 49.1364H201.061V62.6193C201.061 64.0114 200.733 65.2543 200.077 66.348C199.427 67.4351 198.509 68.2936 197.322 68.9233C196.136 69.5464 194.744 69.858 193.146 69.858C191.549 69.858 190.157 69.5464 188.97 68.9233C187.784 68.2936 186.862 67.4351 186.206 66.348C185.556 65.2543 185.232 64.0114 185.232 62.6193V49.1364H187.697V62.4205C187.697 63.4148 187.916 64.2997 188.354 65.0753C188.791 65.8442 189.414 66.4508 190.223 66.8949C191.038 67.3324 192.013 67.5511 193.146 67.5511C194.28 67.5511 195.254 67.3324 196.07 66.8949C196.885 66.4508 197.508 65.8442 197.939 65.0753C198.376 64.2997 198.595 63.4148 198.595 62.4205V49.1364ZM217.122 54.2273C217.002 53.2197 216.519 52.4375 215.67 51.8807C214.822 51.3239 213.781 51.0455 212.548 51.0455C211.646 51.0455 210.858 51.1913 210.181 51.483C209.512 51.7746 208.988 52.1757 208.61 52.6861C208.239 53.1965 208.054 53.7765 208.054 54.4261C208.054 54.9697 208.183 55.437 208.441 55.8281C208.707 56.2126 209.045 56.5341 209.456 56.7926C209.867 57.0445 210.297 57.2533 210.748 57.419C211.199 57.5781 211.613 57.7074 211.991 57.8068L214.059 58.3636C214.59 58.5028 215.18 58.6951 215.829 58.9403C216.485 59.1856 217.112 59.5204 217.708 59.9446C218.312 60.3622 218.809 60.8991 219.2 61.5554C219.591 62.2116 219.787 63.017 219.787 63.9716C219.787 65.072 219.498 66.0663 218.922 66.9545C218.351 67.8428 217.516 68.5488 216.416 69.0724C215.322 69.5961 213.993 69.858 212.429 69.858C210.97 69.858 209.708 69.6226 208.64 69.152C207.58 68.6813 206.744 68.0251 206.135 67.1832C205.531 66.3414 205.19 65.3636 205.11 64.25H207.656C207.722 65.0189 207.981 65.6553 208.431 66.1591C208.889 66.6562 209.466 67.0275 210.162 67.2727C210.864 67.5114 211.62 67.6307 212.429 67.6307C213.37 67.6307 214.215 67.4782 214.964 67.1733C215.713 66.8617 216.306 66.4309 216.744 65.8807C217.181 65.3239 217.4 64.6742 217.4 63.9318C217.4 63.2557 217.211 62.7055 216.833 62.2812C216.456 61.857 215.958 61.5123 215.342 61.2472C214.725 60.982 214.059 60.75 213.343 60.5511L210.838 59.8352C209.247 59.3778 207.987 58.7249 207.059 57.8764C206.131 57.0279 205.667 55.9176 205.667 54.5455C205.667 53.4053 205.975 52.411 206.592 51.5625C207.215 50.7074 208.05 50.0445 209.098 49.5739C210.152 49.0966 211.328 48.858 212.627 48.858C213.94 48.858 215.107 49.0933 216.127 49.5639C217.148 50.0279 217.957 50.6643 218.554 51.473C219.157 52.2817 219.475 53.1998 219.508 54.2273H217.122ZM223.841 69.5V49.1364H236.051V51.3239H226.307V58.2045H235.136V60.392H226.307V69.5H223.841Z" fill="black"/>
</g>
<defs>
<linearGradient id="paint0_linear_1_319" x1="207" y1="199" x2="207" y2="0.5" gradientUnits="userSpaceOnUse">
<stop stop-opacity="0"/>
<stop offset="0.100756"/>
</linearGradient>
<clipPath id="clip0_1_319">
<rect width="414" height="198.5" fill="white" transform="translate(0 0.5)"/>
</clipPath>
<clipPath id="clip1_1_319">
<rect width="414" height="107.13" fill="white" transform="translate(0 91.88)"/>
</clipPath>
<clipPath id="clip2_1_319">
<rect width="414" height="107.13" fill="white" transform="translate(0 91.88)"/>
</clipPath>
<clipPath id="clip3_1_319">
<rect width="388.41" height="107.13" fill="white" transform="translate(0 91.88)"/>
</clipPath>
<clipPath id="clip4_1_319">
<rect width="389" height="24" fill="white" transform="translate(0 91.88)"/>
</clipPath>
</defs>
</svg>
