<svg width="19" height="19" viewBox="0 0 19 19" fill="none" xmlns="http://www.w3.org/2000/svg">
<g clip-path="url(#clip0_1_288)">
<path d="M9.44993 15.5292C9.43919 15.5363 9.42791 15.5449 9.41723 15.5554L9.44993 15.5292ZM9.44993 15.5292L9.49378 15.4941C9.1543 15.7148 10.232 15.0315 10.7298 14.6971C11.5634 14.1373 12.3828 13.5411 13.1476 12.9201C14.383 11.9172 15.3572 10.9446 15.9708 10.0483C16.0769 9.89333 16.1714 9.74163 16.251 9.59913C17.0202 8.17758 17.209 6.78366 16.75 5.65916C16.4605 4.81095 15.7232 4.11011 14.7402 3.70939C13.138 3.11269 11.0476 3.84095 9.89984 5.36433L9.50807 5.88429L9.10678 5.37164C7.94962 3.89338 6.00524 3.14641 4.31838 3.71961C3.36525 4.00649 2.65447 4.72071 2.23972 5.77361C1.79058 6.87169 1.98222 8.26479 2.74023 9.58188C2.94785 9.93166 3.23229 10.309 3.58702 10.709C4.1776 11.3749 4.94661 12.0863 5.85625 12.8274C7.11241 13.8508 9.65866 15.6292 9.58289 15.5554C9.53946 15.513 9.48616 15.5 9.5005 15.5C9.51067 15.5 9.48283 15.5074 9.44993 15.5292Z" stroke="#E84A43" stroke-width="1.5"/>
</g>
<defs>
<clipPath id="clip0_1_288">
<rect width="19" height="19" fill="white"/>
</clipPath>
</defs>
</svg>
