<svg width="40" height="40" viewBox="0 0 40 40" fill="none" xmlns="http://www.w3.org/2000/svg">
<path fill-rule="evenodd" clip-rule="evenodd" d="M87.5156 0H0V87.5156H87.5156V0ZM30.7249 14.4982C30.4637 13.5164 29.6911 12.7418 28.7082 12.4764C26.9309 12 19.8 12 19.8 12C19.8 12 12.6727 12 10.8918 12.4764C9.91251 12.7382 9.13994 13.5128 8.87516 14.4982C8.40001 16.28 8.40001 20 8.40001 20C8.40001 20 8.40001 23.72 8.87516 25.5018C9.13631 26.4837 9.90888 27.2582 10.8918 27.5237C12.6727 28 19.8 28 19.8 28C19.8 28 26.9309 28 28.7082 27.5237C29.6875 27.2618 30.4601 26.4873 30.7249 25.5018C31.2 23.72 31.2 20 31.2 20C31.2 20 31.2 16.28 30.7249 14.4982ZM17.5222 23.4291L23.4453 20L17.5222 16.5709V23.4291Z" fill="#FF3000"/>
</svg>
