<svg width="40" height="40" viewBox="0 0 40 40" fill="none" xmlns="http://www.w3.org/2000/svg">
<path fill-rule="evenodd" clip-rule="evenodd" d="M40 0H0V40H40V0ZM20.1282 16.4807C18.1165 16.4807 16.4861 18.111 16.4861 20.1215C16.4861 22.1321 18.1165 23.7624 20.1282 23.7624C22.14 23.7624 23.7712 22.1321 23.7712 20.1215C23.7712 18.111 22.14 16.4807 20.1282 16.4807ZM20.1282 25.7296C17.029 25.7296 14.5168 23.2189 14.5168 20.1215C14.5168 17.0242 17.029 14.5134 20.1282 14.5134C23.2275 14.5134 25.7397 17.0242 25.7397 20.1215C25.7397 23.2189 23.2275 25.7296 20.1282 25.7296ZM24.8712 15.0193C24.7272 14.8037 24.6504 14.5503 24.6505 14.2911C24.6508 13.9436 24.7891 13.6105 25.0349 13.3649C25.2808 13.1192 25.6142 12.9812 25.9619 12.981H25.9624C26.2217 12.9811 26.4753 13.0581 26.6908 13.2022C26.9064 13.3463 27.0744 13.551 27.1736 13.7905C27.2728 14.0301 27.2986 14.2936 27.2479 14.5478C27.1972 14.802 27.0722 15.0355 26.8888 15.2187C26.7053 15.4019 26.4716 15.5266 26.2172 15.5771C25.9628 15.6276 25.6991 15.6015 25.4595 15.5022C25.2199 15.4029 25.0152 15.2349 24.8712 15.0193ZM13.6839 28.6357C14.0687 28.7856 14.6478 28.963 15.7133 29.0114C16.8648 29.0644 17.2099 29.075 20.1282 29.075C23.0466 29.075 23.3926 29.0644 24.5445 29.0114C25.61 28.963 26.1892 28.7857 26.5739 28.6357C27.0841 28.4372 27.4487 28.2005 27.8309 27.8188C28.2131 27.4372 28.4497 27.0733 28.6483 26.5634C28.7974 26.1788 28.9757 25.6001 29.0243 24.5353C29.0772 23.3831 29.0878 23.0382 29.0878 20.1216C29.0878 17.205 29.0772 16.8602 29.0243 15.708C28.9758 14.6432 28.7984 14.0643 28.6483 13.6798C28.4497 13.1699 28.2137 12.8056 27.8309 12.4236C27.4482 12.0416 27.0841 11.8043 26.5739 11.6066C26.1881 11.4581 25.61 11.2794 24.5445 11.2309C23.3916 11.1789 23.0453 11.1674 20.1282 11.1674C17.2112 11.1674 16.8652 11.178 15.7133 11.2309C14.6478 11.2793 14.0685 11.4567 13.6839 11.6066C13.1728 11.8043 12.8091 12.0411 12.4269 12.4236C12.0446 12.8061 11.8081 13.1699 11.6094 13.6798C11.4608 14.0654 11.282 14.6432 11.2335 15.708C11.1814 16.8602 11.17 17.205 11.17 20.1216C11.17 23.0382 11.1805 23.384 11.2335 24.5353C11.282 25.6001 11.4594 26.179 11.6094 26.5634C11.8072 27.0733 12.0441 27.4368 12.4269 27.8188C12.8096 28.2008 13.1737 28.4372 13.6839 28.6357ZM12.9702 9.77338C13.6645 9.5034 14.4594 9.31904 15.6228 9.2661C16.7886 9.21227 17.1614 9.19995 20.1291 9.19995C23.0968 9.19995 23.4694 9.21315 24.6346 9.2661C25.7971 9.31817 26.5916 9.5034 27.2871 9.77338C28.0048 10.0522 28.6149 10.4253 29.2221 11.0331C29.8294 11.641 30.2028 12.2497 30.4826 12.9678C30.7527 13.6616 30.9372 14.456 30.9902 15.6188C31.0432 16.7833 31.0555 17.1556 31.0555 20.1215C31.0555 23.0875 31.0432 23.4589 30.9902 24.6243C30.9381 25.787 30.7527 26.581 30.4826 27.2753C30.2028 27.9934 29.8303 28.6031 29.2221 29.21C28.6139 29.8168 28.0048 30.1901 27.2863 30.4697C26.5916 30.7397 25.7971 30.924 24.6337 30.977C23.4685 31.0308 23.096 31.0431 20.1282 31.0431C17.1605 31.0431 16.7886 31.0299 15.6228 30.977C14.4594 30.924 13.6658 30.7397 12.9702 30.4697C12.2512 30.1901 11.6425 29.8166 11.0344 29.21C10.4262 28.6033 10.0528 27.9934 9.77387 27.2753C9.50373 26.581 9.31926 25.787 9.26628 24.6243C9.21243 23.4598 9.2001 23.0875 9.2001 20.1215C9.2001 17.1556 9.21243 16.7833 9.26628 15.6188C9.31926 14.4561 9.50373 13.6621 9.77387 12.9678C10.0528 12.2493 10.4261 11.64 11.0344 11.0331C11.6426 10.4262 12.2512 10.0522 12.9702 9.77338Z" fill="url(#paint0_linear_255_417)"/>
<defs>
<linearGradient id="paint0_linear_255_417" x1="45.8227" y1="46.2891" x2="19.7254" y2="20.1625" gradientUnits="userSpaceOnUse">
<stop stop-color="#FBE18A"/>
<stop offset="0.21" stop-color="#FCBB45"/>
<stop offset="0.38" stop-color="#F75274"/>
<stop offset="0.52" stop-color="#D53692"/>
<stop offset="0.74" stop-color="#8F39CE"/>
<stop offset="1" stop-color="#5B4FE9"/>
</linearGradient>
</defs>
</svg>
