<svg width="8" height="8" viewBox="0 0 8 8" fill="none" xmlns="http://www.w3.org/2000/svg">
<g clip-path="url(#clip0_499_499)">
<path d="M5.8556 5.18748L7.55613 6.888C7.57553 6.90752 7.58642 6.93392 7.58642 6.96144C7.58642 6.98896 7.57553 7.01536 7.55613 7.03487L7.13946 7.45206C7.12979 7.46175 7.1183 7.46943 7.10565 7.47467C7.09301 7.47991 7.07945 7.48261 7.06576 7.48261C7.05207 7.48261 7.03852 7.47991 7.02587 7.47467C7.01323 7.46943 7.00174 7.46175 6.99206 7.45206L5.29102 5.75154C4.66617 6.23295 3.88152 6.45847 3.09641 6.38231C2.31131 6.30615 1.58463 5.93401 1.06397 5.34147C0.543304 4.74894 0.267696 3.98044 0.293118 3.19206C0.318541 2.40368 0.64309 1.65454 1.20085 1.09678C1.75861 0.539025 2.50775 0.214476 3.29613 0.189053C4.08451 0.163631 4.853 0.43924 5.44554 0.959904C6.03807 1.48057 6.41021 2.20725 6.48637 2.99235C6.56254 3.77745 6.33701 4.56211 5.8556 5.18696V5.18748ZM3.39363 5.82967C3.7272 5.82967 4.0575 5.76396 4.36568 5.63631C4.67386 5.50866 4.95388 5.32156 5.18975 5.08569C5.42562 4.84982 5.61272 4.5698 5.74038 4.26162C5.86803 3.95344 5.93373 3.62313 5.93373 3.28956C5.93373 2.95599 5.86803 2.62568 5.74038 2.31751C5.61272 2.00933 5.42562 1.72931 5.18975 1.49344C4.95388 1.25757 4.67386 1.07046 4.36568 0.942811C4.0575 0.815159 3.7272 0.749457 3.39363 0.749457C2.71995 0.749457 2.07386 1.01707 1.5975 1.49344C1.12114 1.9698 0.853522 2.61588 0.853522 3.28956C0.853522 3.96324 1.12114 4.60932 1.5975 5.08569C2.07386 5.56205 2.71995 5.82967 3.39363 5.82967Z" fill="black" fill-opacity="0.6"/>
</g>
<defs>
<clipPath id="clip0_499_499">
<rect width="7.29167" height="7.29167" fill="white" transform="translate(0.291504 0.1875)"/>
</clipPath>
</defs>
</svg>
