<svg width="8" height="8" viewBox="0 0 8 8" fill="none" xmlns="http://www.w3.org/2000/svg">
<g clip-path="url(#clip0_499_224)">
<path d="M5.85585 5.18748L7.55637 6.888C7.57577 6.90752 7.58666 6.93392 7.58666 6.96144C7.58666 6.98896 7.57577 7.01536 7.55637 7.03487L7.1397 7.45206C7.13003 7.46175 7.11854 7.46943 7.1059 7.47467C7.09325 7.47991 7.07969 7.48261 7.06601 7.48261C7.05232 7.48261 7.03876 7.47991 7.02612 7.47467C7.01347 7.46943 7.00198 7.46175 6.99231 7.45206L5.29127 5.75154C4.66642 6.23295 3.88176 6.45847 3.09666 6.38231C2.31156 6.30615 1.58488 5.93401 1.06421 5.34147C0.543549 4.74894 0.26794 3.98044 0.293363 3.19206C0.318785 2.40368 0.643334 1.65454 1.20109 1.09678C1.75885 0.539025 2.50799 0.214476 3.29637 0.189053C4.08475 0.163631 4.85325 0.43924 5.44578 0.959904C6.03832 1.48057 6.41045 2.20725 6.48662 2.99235C6.56278 3.77745 6.33726 4.56211 5.85585 5.18696V5.18748ZM3.39387 5.82967C3.72744 5.82967 4.05775 5.76396 4.36593 5.63631C4.67411 5.50866 4.95412 5.32156 5.18999 5.08569C5.42587 4.84982 5.61297 4.5698 5.74062 4.26162C5.86827 3.95344 5.93397 3.62313 5.93397 3.28956C5.93397 2.95599 5.86827 2.62568 5.74062 2.31751C5.61297 2.00933 5.42587 1.72931 5.18999 1.49344C4.95412 1.25757 4.67411 1.07046 4.36593 0.942811C4.05775 0.815159 3.72744 0.749457 3.39387 0.749457C2.72019 0.749457 2.07411 1.01707 1.59775 1.49344C1.12138 1.9698 0.853766 2.61588 0.853766 3.28956C0.853766 3.96324 1.12138 4.60932 1.59775 5.08569C2.07411 5.56205 2.72019 5.82967 3.39387 5.82967Z" fill="black" fill-opacity="0.6"/>
</g>
<defs>
<clipPath id="clip0_499_224">
<rect width="7.29167" height="7.29167" fill="white" transform="translate(0.291748 0.1875)"/>
</clipPath>
</defs>
</svg>
