<svg width="14" height="15" viewBox="0 0 14 15" fill="none" xmlns="http://www.w3.org/2000/svg">
<g clip-path="url(#clip0_417_160)">
<path d="M10.683 10.1L13.948 13.365C13.9853 13.4024 14.0062 13.4531 14.0062 13.506C14.0062 13.5588 13.9853 13.6095 13.948 13.647L13.148 14.448C13.1294 14.4665 13.1074 14.4813 13.0831 14.4914C13.0588 14.5014 13.0328 14.5066 13.0065 14.5066C12.9802 14.5066 12.9542 14.5014 12.9299 14.4914C12.9056 14.4813 12.8836 14.4665 12.865 14.448L9.59901 11.183C8.39931 12.1073 6.89276 12.5403 5.38537 12.394C3.87797 12.2478 2.48275 11.5333 1.48307 10.3956C0.483396 9.25796 -0.0457731 7.78244 0.00303882 6.26876C0.0518507 4.75507 0.674984 3.31671 1.74588 2.24582C2.81677 1.17492 4.25513 0.55179 5.76882 0.502978C7.2825 0.454166 8.75802 0.983335 9.89568 1.98301C11.0333 2.98269 11.7479 4.37791 11.8941 5.88531C12.0403 7.3927 11.6073 8.89925 10.683 10.099V10.1ZM5.95601 11.333C6.59647 11.333 7.23066 11.2068 7.82236 10.9617C8.41407 10.7166 8.9517 10.3574 9.40457 9.90451C9.85744 9.45164 10.2167 8.914 10.4618 8.3223C10.7069 7.73059 10.833 7.09641 10.833 6.45595C10.833 5.8155 10.7069 5.18131 10.4618 4.58961C10.2167 3.9979 9.85744 3.46026 9.40457 3.00739C8.9517 2.55452 8.41407 2.19528 7.82236 1.95019C7.23066 1.7051 6.59647 1.57895 5.95601 1.57895C4.66255 1.57895 3.42207 2.09278 2.50745 3.00739C1.59284 3.92201 1.07901 5.16249 1.07901 6.45595C1.07901 7.74941 1.59284 8.9899 2.50745 9.90451C3.42207 10.8191 4.66255 11.333 5.95601 11.333Z" fill="black" fill-opacity="0.6"/>
</g>
<defs>
<clipPath id="clip0_417_160">
<rect width="14" height="14" fill="white" transform="translate(0 0.5)"/>
</clipPath>
</defs>
</svg>
