<svg width="38" height="27" viewBox="0 0 38 27" fill="none" xmlns="http://www.w3.org/2000/svg">
<g opacity="0.6" clip-path="url(#clip0_1_87)">
<path d="M19 25.5C15.9195 25.5 13.1188 24.329 10.9941 22.4211C12.1662 19.6329 14.8899 18.1223 18.988 18.1223C23.0903 18.1223 25.8203 19.7052 27.0002 22.4996C24.8765 24.4023 22.0753 25.5 19 25.5ZM19.1446 7.14404C21.7066 7.14404 23.6223 9.12628 23.6223 11.7606C23.6223 14.4698 21.6073 16.6777 19.1446 16.6777C16.6818 16.6777 14.6668 14.4698 14.6668 11.7606C14.6668 9.12628 16.5825 7.14404 19.1446 7.14404ZM19 0.5C11.8204 0.5 6 6.32036 6 13.5C6 13.9758 6.02912 14.4443 6.07904 14.9066C6.09568 15.06 6.12636 15.2087 6.1482 15.3606C6.1924 15.6668 6.23816 15.9721 6.30316 16.2711C6.34112 16.4468 6.39104 16.6169 6.43628 16.7895C6.50648 17.0573 6.57824 17.3236 6.66456 17.5846C6.72384 17.7624 6.79092 17.9356 6.85696 18.1098C6.95056 18.3573 7.04884 18.6012 7.157 18.8409C7.23448 19.013 7.31716 19.1826 7.40244 19.3505C7.51944 19.5824 7.6432 19.8097 7.77372 20.0333C7.86836 20.1955 7.96352 20.3552 8.06492 20.5127C8.20636 20.7327 8.35612 20.9454 8.51004 21.156C8.61768 21.3036 8.72324 21.4513 8.83712 21.5933C9.00612 21.8054 9.18604 22.0072 9.36752 22.2079C9.48192 22.3348 9.59216 22.4648 9.71176 22.5865C9.92236 22.8023 10.1449 23.003 10.3696 23.2032C10.4595 23.2833 10.5406 23.3722 10.6332 23.4502L10.6353 23.4445C12.9742 25.4205 15.9381 26.5032 19 26.5C22.0579 26.5035 25.0183 25.4237 27.3559 23.4523C27.3565 23.454 27.357 23.4557 27.3574 23.4575C27.4469 23.3826 27.5259 23.2968 27.6122 23.2193C27.8421 23.0155 28.0698 22.8101 28.2846 22.5906C28.4032 22.47 28.5118 22.3416 28.6252 22.2162C28.8082 22.014 28.9897 21.8106 29.1598 21.5969C29.2731 21.4555 29.3787 21.3078 29.4858 21.1612C29.6402 20.9506 29.791 20.7368 29.9325 20.5164C30.2742 19.9809 30.578 19.4221 30.8414 18.844C30.9496 18.6043 31.0484 18.3604 31.1425 18.1129C31.2086 17.9382 31.2756 17.765 31.3344 17.5867C31.4212 17.3256 31.493 17.0594 31.5632 16.7911C31.6084 16.6184 31.6584 16.4484 31.6963 16.2732C31.7618 15.9736 31.8076 15.6679 31.8518 15.3611C31.8736 15.2092 31.9043 15.061 31.921 14.9076C31.9704 14.4448 32 13.9763 32 13.5C32 6.32036 26.1796 0.5 19 0.5Z" fill="#E37712"/>
</g>
<defs>
<clipPath id="clip0_1_87">
<rect width="38" height="26" fill="white" transform="translate(0 0.5)"/>
</clipPath>
</defs>
</svg>
