<svg width="8" height="8" viewBox="0 0 8 8" fill="none" xmlns="http://www.w3.org/2000/svg">
<g clip-path="url(#clip0_1_76)">
<path d="M5.85573 5.18748L7.55625 6.888C7.57565 6.90752 7.58654 6.93392 7.58654 6.96144C7.58654 6.98896 7.57565 7.01536 7.55625 7.03487L7.13958 7.45206C7.12991 7.46175 7.11842 7.46943 7.10577 7.47467C7.09313 7.47991 7.07957 7.48261 7.06588 7.48261C7.05219 7.48261 7.03864 7.47991 7.02599 7.47467C7.01335 7.46943 7.00186 7.46175 6.99219 7.45206L5.29114 5.75154C4.6663 6.23295 3.88164 6.45847 3.09654 6.38231C2.31143 6.30615 1.58475 5.93401 1.06409 5.34147C0.543427 4.74894 0.267818 3.98044 0.29324 3.19206C0.318663 2.40368 0.643212 1.65454 1.20097 1.09678C1.75873 0.539025 2.50787 0.214476 3.29625 0.189053C4.08463 0.163631 4.85313 0.43924 5.44566 0.959904C6.03819 1.48057 6.41033 2.20725 6.4865 2.99235C6.56266 3.77745 6.33713 4.56211 5.85573 5.18696V5.18748ZM3.39375 5.82967C3.72732 5.82967 4.05762 5.76396 4.3658 5.63631C4.67398 5.50866 4.954 5.32156 5.18987 5.08569C5.42574 4.84982 5.61285 4.5698 5.7405 4.26162C5.86815 3.95344 5.93385 3.62313 5.93385 3.28956C5.93385 2.95599 5.86815 2.62568 5.7405 2.31751C5.61285 2.00933 5.42574 1.72931 5.18987 1.49344C4.954 1.25757 4.67398 1.07046 4.3658 0.942811C4.05762 0.815159 3.72732 0.749457 3.39375 0.749457C2.72007 0.749457 2.07398 1.01707 1.59762 1.49344C1.12126 1.9698 0.853644 2.61588 0.853644 3.28956C0.853644 3.96324 1.12126 4.60932 1.59762 5.08569C2.07398 5.56205 2.72007 5.82967 3.39375 5.82967Z" fill="black" fill-opacity="0.6"/>
</g>
<defs>
<clipPath id="clip0_1_76">
<rect width="7.29167" height="7.29167" fill="white" transform="translate(0.291687 0.1875)"/>
</clipPath>
</defs>
</svg>
