<svg width="26" height="26" viewBox="0 0 26 26" fill="none" xmlns="http://www.w3.org/2000/svg">
<g clip-path="url(#clip0_352_221)">
<path d="M13 25C9.91952 25 7.1188 23.829 4.99408 21.9211C6.16616 19.1329 8.88992 17.6223 12.988 17.6223C17.0903 17.6223 19.8203 19.2051 21.0002 21.9996C18.8765 23.9023 16.0753 25 13 25ZM13.1446 6.64402C15.7066 6.64402 17.6223 8.62626 17.6223 11.2606C17.6223 13.9698 15.6073 16.1777 13.1446 16.1777C10.6818 16.1777 8.66684 13.9698 8.66684 11.2606C8.66684 8.62626 10.5825 6.64402 13.1446 6.64402ZM13 -1.52588e-05C5.82036 -1.52588e-05 0 5.82034 0 13C0 13.4758 0.02912 13.9443 0.07904 14.4066C0.09568 14.56 0.12636 14.7087 0.1482 14.8605C0.1924 15.1668 0.23816 15.4721 0.30316 15.7711C0.34112 15.9468 0.39104 16.1169 0.43628 16.2895C0.50648 16.5573 0.57824 16.8235 0.66456 17.0846C0.72384 17.2624 0.79092 17.4356 0.85696 17.6098C0.95056 17.8573 1.04884 18.1012 1.157 18.3409C1.23448 18.513 1.31716 18.6825 1.40244 18.8505C1.51944 19.0824 1.6432 19.3097 1.77372 19.5333C1.86836 19.6955 1.96352 19.8551 2.06492 20.0127C2.20636 20.2327 2.35612 20.4453 2.51004 20.6559C2.61768 20.8036 2.72324 20.9513 2.83712 21.0933C3.00612 21.3054 3.18604 21.5072 3.36752 21.7079C3.48192 21.8348 3.59216 21.9648 3.71176 22.0865C3.92236 22.3023 4.14492 22.503 4.36956 22.7032C4.45952 22.7833 4.54064 22.8722 4.6332 22.9502L4.63528 22.9445C6.97423 24.9205 9.93808 26.0031 13 26C16.0579 26.0035 19.0183 24.9237 21.3559 22.9523C21.3565 22.954 21.357 22.9557 21.3574 22.9575C21.4469 22.8826 21.5259 22.7968 21.6122 22.7193C21.8421 22.5155 22.0698 22.3101 22.2846 22.0906C22.4032 21.97 22.5118 21.8415 22.6252 21.7162C22.8082 21.5139 22.9897 21.3106 23.1598 21.0969C23.2731 20.9555 23.3787 20.8078 23.4858 20.6611C23.6402 20.4505 23.791 20.2368 23.9325 20.0163C24.2742 19.4809 24.578 18.922 24.8414 18.344C24.9496 18.1043 25.0484 17.8604 25.1425 17.6129C25.2086 17.4382 25.2756 17.265 25.3344 17.0867C25.4212 16.8256 25.493 16.5594 25.5632 16.2911C25.6084 16.1184 25.6584 15.9484 25.6963 15.7731C25.7618 15.4736 25.8076 15.1679 25.8518 14.8611C25.8736 14.7092 25.9043 14.561 25.921 14.4076C25.9704 13.9448 26 13.4763 26 13C26 5.82034 20.1796 -1.52588e-05 13 -1.52588e-05Z" fill="#E37712"/>
</g>
<defs>
<clipPath id="clip0_352_221">
<rect width="26" height="26" fill="white"/>
</clipPath>
</defs>
</svg>
