<svg width="32" height="32" viewBox="0 0 32 32" fill="none" xmlns="http://www.w3.org/2000/svg">
<g filter="url(#filter0_dddi_255_521)">
<rect x="8" y="4" width="16" height="16" rx="4" fill="#1354D5"/>
<path fill-rule="evenodd" clip-rule="evenodd" d="M20.1754 7.76258C20.5827 8.13561 20.6105 8.76817 20.2374 9.17544C19.0843 10.4344 18.5299 11.2019 17.697 12.6922C17.3826 13.2548 17.0343 14.0352 16.7567 14.699C16.62 15.026 16.5041 15.3157 16.4225 15.5235C16.3817 15.6273 16.3496 15.7104 16.3279 15.7671L16.3032 15.8316L16.2971 15.8476L16.2957 15.8514C16.1716 16.1812 15.8828 16.4221 15.5359 16.4843C15.1891 16.5465 14.8351 16.4215 14.6042 16.1554L11.7447 12.8597C11.3828 12.4425 11.4275 11.811 11.8447 11.449C12.2618 11.0871 12.8934 11.1318 13.2553 11.549L15.0451 13.6118C15.3093 12.9954 15.6343 12.2834 15.9512 11.7165C16.8595 10.0911 17.5049 9.19765 18.7626 7.82457C19.1356 7.41731 19.7682 7.38955 20.1754 7.76258Z" fill="white"/>
</g>
<defs>
<filter id="filter0_dddi_255_521" x="0" y="0" width="32" height="32" filterUnits="userSpaceOnUse" color-interpolation-filters="sRGB">
<feFlood flood-opacity="0" result="BackgroundImageFix"/>
<feColorMatrix in="SourceAlpha" type="matrix" values="0 0 0 0 0 0 0 0 0 0 0 0 0 0 0 0 0 0 127 0" result="hardAlpha"/>
<feMorphology radius="2" operator="erode" in="SourceAlpha" result="effect1_dropShadow_255_521"/>
<feOffset dy="4"/>
<feGaussianBlur stdDeviation="5"/>
<feColorMatrix type="matrix" values="0 0 0 0 0.0729166 0 0 0 0 0.32797 0 0 0 0 0.833333 0 0 0 0.24 0"/>
<feBlend mode="normal" in2="BackgroundImageFix" result="effect1_dropShadow_255_521"/>
<feColorMatrix in="SourceAlpha" type="matrix" values="0 0 0 0 0 0 0 0 0 0 0 0 0 0 0 0 0 0 127 0" result="hardAlpha"/>
<feMorphology radius="1" operator="dilate" in="SourceAlpha" result="effect2_dropShadow_255_521"/>
<feOffset/>
<feColorMatrix type="matrix" values="0 0 0 0 0.0729166 0 0 0 0 0.32797 0 0 0 0 0.833333 0 0 0 1 0"/>
<feBlend mode="normal" in2="effect1_dropShadow_255_521" result="effect2_dropShadow_255_521"/>
<feColorMatrix in="SourceAlpha" type="matrix" values="0 0 0 0 0 0 0 0 0 0 0 0 0 0 0 0 0 0 127 0" result="hardAlpha"/>
<feOffset dy="1"/>
<feGaussianBlur stdDeviation="0.5"/>
<feColorMatrix type="matrix" values="0 0 0 0 0 0 0 0 0 0 0 0 0 0 0 0 0 0 0.14 0"/>
<feBlend mode="normal" in2="effect2_dropShadow_255_521" result="effect3_dropShadow_255_521"/>
<feBlend mode="normal" in="SourceGraphic" in2="effect3_dropShadow_255_521" result="shape"/>
<feColorMatrix in="SourceAlpha" type="matrix" values="0 0 0 0 0 0 0 0 0 0 0 0 0 0 0 0 0 0 127 0" result="hardAlpha"/>
<feOffset dy="1"/>
<feComposite in2="hardAlpha" operator="arithmetic" k2="-1" k3="1"/>
<feColorMatrix type="matrix" values="0 0 0 0 0.294 0 0 0 0 0.522667 0 0 0 0 0.98 0 0 0 1 0"/>
<feBlend mode="normal" in2="shape" result="effect4_innerShadow_255_521"/>
</filter>
</defs>
</svg>
