<svg width="26" height="27" viewBox="0 0 26 27" fill="none" xmlns="http://www.w3.org/2000/svg">
<g filter="url(#filter0_ddddi_255_519)">
<rect x="5" y="4" width="16" height="16" rx="4" fill="#2264E6"/>
<path fill-rule="evenodd" clip-rule="evenodd" d="M17.1754 7.76258C17.5827 8.13561 17.6105 8.76817 17.2374 9.17544C16.0843 10.4344 15.5299 11.2019 14.697 12.6922C14.3826 13.2548 14.0343 14.0352 13.7567 14.699C13.62 15.026 13.5041 15.3157 13.4225 15.5235C13.3817 15.6273 13.3496 15.7104 13.3279 15.7671L13.3032 15.8316L13.2971 15.8476L13.2957 15.8514C13.1716 16.1812 12.8828 16.4221 12.5359 16.4843C12.1891 16.5465 11.8351 16.4215 11.6042 16.1554L8.74469 12.8597C8.38275 12.4425 8.42751 11.811 8.84466 11.449C9.26182 11.0871 9.8934 11.1318 10.2553 11.549L12.0451 13.6118C12.3093 12.9954 12.6343 12.2834 12.9512 11.7165C13.8595 10.0911 14.5049 9.19765 15.7626 7.82457C16.1356 7.41731 16.7682 7.38955 17.1754 7.76258Z" fill="white"/>
</g>
<defs>
<filter id="filter0_ddddi_255_519" x="0" y="0" width="26" height="27" filterUnits="userSpaceOnUse" color-interpolation-filters="sRGB">
<feFlood flood-opacity="0" result="BackgroundImageFix"/>
<feColorMatrix in="SourceAlpha" type="matrix" values="0 0 0 0 0 0 0 0 0 0 0 0 0 0 0 0 0 0 127 0" result="hardAlpha"/>
<feOffset dy="2"/>
<feGaussianBlur stdDeviation="2.5"/>
<feColorMatrix type="matrix" values="0 0 0 0 0.135 0 0 0 0 0.393312 0 0 0 0 0.9 0 0 0 0.12 0"/>
<feBlend mode="normal" in2="BackgroundImageFix" result="effect1_dropShadow_255_519"/>
<feColorMatrix in="SourceAlpha" type="matrix" values="0 0 0 0 0 0 0 0 0 0 0 0 0 0 0 0 0 0 127 0" result="hardAlpha"/>
<feMorphology radius="4" operator="dilate" in="SourceAlpha" result="effect2_dropShadow_255_519"/>
<feOffset/>
<feComposite in2="hardAlpha" operator="out"/>
<feColorMatrix type="matrix" values="0 0 0 0 0.00392157 0 0 0 0 0.698039 0 0 0 0 0.929412 0 0 0 0.36 0"/>
<feBlend mode="normal" in2="effect1_dropShadow_255_519" result="effect2_dropShadow_255_519"/>
<feColorMatrix in="SourceAlpha" type="matrix" values="0 0 0 0 0 0 0 0 0 0 0 0 0 0 0 0 0 0 127 0" result="hardAlpha"/>
<feMorphology radius="1" operator="dilate" in="SourceAlpha" result="effect3_dropShadow_255_519"/>
<feOffset/>
<feColorMatrix type="matrix" values="0 0 0 0 0.135 0 0 0 0 0.393312 0 0 0 0 0.9 0 0 0 1 0"/>
<feBlend mode="normal" in2="effect2_dropShadow_255_519" result="effect3_dropShadow_255_519"/>
<feColorMatrix in="SourceAlpha" type="matrix" values="0 0 0 0 0 0 0 0 0 0 0 0 0 0 0 0 0 0 127 0" result="hardAlpha"/>
<feOffset dy="1"/>
<feGaussianBlur stdDeviation="0.5"/>
<feColorMatrix type="matrix" values="0 0 0 0 0 0 0 0 0 0 0 0 0 0 0 0 0 0 0.14 0"/>
<feBlend mode="normal" in2="effect3_dropShadow_255_519" result="effect4_dropShadow_255_519"/>
<feBlend mode="normal" in="SourceGraphic" in2="effect4_dropShadow_255_519" result="shape"/>
<feColorMatrix in="SourceAlpha" type="matrix" values="0 0 0 0 0 0 0 0 0 0 0 0 0 0 0 0 0 0 127 0" result="hardAlpha"/>
<feOffset dy="1"/>
<feComposite in2="hardAlpha" operator="arithmetic" k2="-1" k3="1"/>
<feColorMatrix type="matrix" values="0 0 0 0 0.294 0 0 0 0 0.522667 0 0 0 0 0.98 0 0 0 1 0"/>
<feBlend mode="normal" in2="shape" result="effect5_innerShadow_255_519"/>
</filter>
</defs>
</svg>
