<svg width="35" height="34" viewBox="0 0 35 34" fill="none" xmlns="http://www.w3.org/2000/svg">
<path d="M31.2134 1.41636C31.2134 1.01848 30.9148 0.753235 30.5168 0.753235H25.5412C25.5412 1.81423 25.5412 3.27311 25.5412 3.47204C25.5412 3.96939 25.1432 4.33411 24.6788 4.43358C24.1812 4.53304 23.7168 4.13517 23.6173 3.67098C23.6173 3.57151 23.6173 3.57151 23.6173 3.47204C23.6173 3.17364 23.6173 1.9137 23.6173 0.753235H11.4105C11.4105 1.81423 11.4105 3.17364 11.4105 3.47204C11.4105 3.96939 11.0125 4.43358 10.5481 4.43358C10.0506 4.43358 9.58617 4.13517 9.48665 3.67098C9.48665 3.57151 9.48665 3.57151 9.48665 3.47204C9.48665 3.27311 9.48665 1.81423 9.48665 0.753235H4.51107C4.11302 0.753235 3.84766 1.05164 3.84766 1.41636L0.862305 33.1137C0.862305 33.5116 1.16084 33.81 1.55889 33.81H33.5022C33.9002 33.81 34.1987 33.5116 34.1987 33.1137L31.2134 1.41636Z" fill="#989186"/>
</svg>
