<svg width="17" height="9" viewBox="0 0 17 9" fill="none" xmlns="http://www.w3.org/2000/svg">
<path d="M8.53514 1.68438C7.57319 1.68438 7.87173 1.68438 7.5732 1.68438C6.90978 1.68438 6.11369 1.85567 5.45028 2.11261C4.38882 2.54084 3.49321 3.28311 2.92931 4.19667C2.63078 4.71055 2.43176 5.19588 2.33224 5.7954C2.33224 6.05234 2.23273 6.22363 2.23273 6.45202C2.23273 6.79461 2.23273 7.05155 2.23273 7.36558C2.23273 7.79381 1.83468 8.1935 1.3703 8.1935C0.872738 8.1935 0.40835 7.93656 0.308838 7.53688C0.308838 7.45123 0.308838 7.45123 0.308838 7.36558C0.308838 7.023 0.308838 6.70896 0.308838 6.36638C0.308838 5.45282 0.607373 4.53925 0.97225 3.68279C1.3703 3.02617 1.83468 2.341 2.53127 1.85567C3.59273 1.02776 4.7537 0.428232 6.2132 0.171293C6.67759 0.0856463 7.17515 0 7.73905 0C8.23661 0 8.70099 0 9.19855 0C10.1605 0 11.0561 0.171293 11.819 0.513878C12.6815 0.856463 13.4776 1.25615 14.0415 1.77002C15.1029 2.68358 15.7995 3.68279 16.1644 4.93894C16.2639 5.36717 16.3634 5.8525 16.3634 6.28073C16.3634 6.62331 16.3634 6.93735 16.3634 7.19429C16.3634 7.62252 15.9654 7.93656 15.501 8.0222C15.0366 8.10785 14.539 7.76527 14.4395 7.36558C14.4395 7.27994 14.4395 7.27994 14.4395 7.19429C14.4395 6.85171 14.4395 6.45202 14.4395 6.10944C14.4395 5.45282 14.2405 4.85329 13.8424 4.28232C13.3449 3.36875 12.4824 2.59794 11.421 2.19826C10.8239 1.94132 10.26 1.68438 9.46392 1.68438C9.19855 1.68438 8.53514 1.68438 8.53514 1.68438Z" fill="#989186"/>
</svg>
