<svg width="17" height="10" viewBox="0 0 17 10" fill="none" xmlns="http://www.w3.org/2000/svg">
<path d="M8.71306 1.95622C7.75111 1.95622 8.04965 1.95622 7.75111 1.95622C7.0877 1.95622 6.29161 2.15515 5.6282 2.45356C4.56674 2.9509 3.67113 3.81297 3.10723 4.87396C2.8087 5.47078 2.60967 6.03443 2.51016 6.73071C2.51016 7.02912 2.41065 7.22806 2.41065 7.49331C2.41065 7.89118 2.41065 8.18959 2.41065 8.55431C2.41065 9.05165 2.0126 9.51584 1.54821 9.51584C1.05066 9.51584 0.586267 9.21743 0.486755 8.75324C0.486755 8.65377 0.486755 8.65377 0.486755 8.55431C0.486755 8.15643 0.486755 7.79171 0.486755 7.39384C0.486755 6.33284 0.785291 5.27184 1.15017 4.27715C1.54821 3.51456 2.0126 2.71881 2.70918 2.15515C3.77064 1.19362 4.93161 0.497343 6.39112 0.198937C6.85551 0.0994687 7.35307 0 7.91697 0C8.41452 0 8.87891 0 9.37647 0C10.3384 0 11.234 0.198937 11.9969 0.596812C12.8594 0.994687 13.6555 1.45887 14.2194 2.05569C15.2808 3.11669 15.9774 4.27715 16.3423 5.73603C16.4418 6.23337 16.5413 6.79703 16.5413 7.29437C16.5413 7.69224 16.5413 8.05696 16.5413 8.35537C16.5413 8.85271 16.1433 9.21743 15.6789 9.3169C15.2145 9.41637 14.7169 9.01849 14.6174 8.55431C14.6174 8.45484 14.6174 8.45484 14.6174 8.35537C14.6174 7.95749 14.6174 7.49331 14.6174 7.09543C14.6174 6.33284 14.4184 5.63656 14.0204 4.97343C13.5228 3.91243 12.6604 3.01722 11.5989 2.55303C11.0018 2.25462 10.4379 1.95622 9.64184 1.95622C9.37647 1.95622 8.71306 1.95622 8.71306 1.95622Z" fill="#989186"/>
</svg>
