<svg width="35" height="29" viewBox="0 0 35 29" fill="none" xmlns="http://www.w3.org/2000/svg">
<path d="M31.019 0.764472C31.019 0.421887 30.7205 0.193497 30.3225 0.193497H25.3469C25.3469 1.10706 25.3469 2.3632 25.3469 2.5345C25.3469 2.96273 24.9488 3.27676 24.4844 3.36241C23.9869 3.44806 23.5225 3.10547 23.423 2.70579C23.423 2.62014 23.423 2.62014 23.423 2.5345C23.423 2.27756 23.423 1.1927 23.423 0.193497H11.2162C11.2162 1.10706 11.2162 2.27756 11.2162 2.5345C11.2162 2.96273 10.8182 3.36241 10.3538 3.36241C9.85622 3.36241 9.39183 3.10547 9.29232 2.70579C9.29232 2.62014 9.29232 2.62014 9.29232 2.5345C9.29232 2.3632 9.29232 1.10706 9.29232 0.193497H4.31673C3.91868 0.193497 3.65332 0.450436 3.65332 0.764472L0.667969 28.0571C0.667969 28.3997 0.966504 28.6566 1.36455 28.6566H33.3078C33.7059 28.6566 34.0044 28.3997 34.0044 28.0571L31.019 0.764472Z" fill="#989186"/>
</svg>
