<svg width="8" height="8" viewBox="0 0 8 8" fill="none" xmlns="http://www.w3.org/2000/svg">
<path d="M5.85585 5.18742L7.55637 6.88794C7.57577 6.90745 7.58666 6.93386 7.58666 6.96138C7.58666 6.98889 7.57577 7.01529 7.55637 7.03481L7.1397 7.452C7.13003 7.46168 7.11854 7.46937 7.10589 7.47461C7.09325 7.47985 7.07969 7.48255 7.06601 7.48255C7.05232 7.48255 7.03876 7.47985 7.02612 7.47461C7.01347 7.46937 7.00198 7.46168 6.99231 7.452L5.29127 5.75148C4.66642 6.23289 3.88176 6.45841 3.09666 6.38225C2.31156 6.30608 1.58488 5.93395 1.06421 5.34141C0.543549 4.74888 0.26794 3.98038 0.293363 3.192C0.318785 2.40362 0.643334 1.65448 1.20109 1.09672C1.75885 0.538964 2.50799 0.214415 3.29637 0.188992C4.08475 0.16357 4.85325 0.439179 5.44578 0.959843C6.03832 1.48051 6.41045 2.20719 6.48662 2.99229C6.56278 3.77739 6.33726 4.56205 5.85585 5.1869V5.18742ZM3.39387 5.8296C3.72744 5.8296 4.05775 5.7639 4.36593 5.63625C4.67411 5.5086 4.95412 5.3215 5.18999 5.08562C5.42587 4.84975 5.61297 4.56974 5.74062 4.26156C5.86827 3.95338 5.93397 3.62307 5.93397 3.2895C5.93397 2.95593 5.86827 2.62562 5.74062 2.31744C5.61297 2.00926 5.42587 1.72925 5.18999 1.49338C4.95412 1.2575 4.67411 1.0704 4.36593 0.94275C4.05775 0.815098 3.72744 0.749396 3.39387 0.749396C2.72019 0.749396 2.07411 1.01701 1.59775 1.49338C1.12138 1.96974 0.853766 2.61582 0.853766 3.2895C0.853766 3.96318 1.12138 4.60926 1.59775 5.08562C2.07411 5.56199 2.72019 5.8296 3.39387 5.8296Z" fill="black" fill-opacity="0.6"/>
</svg>
