<svg width="35" height="34" viewBox="0 0 35 34" fill="none" xmlns="http://www.w3.org/2000/svg">
<path d="M31.2136 1.41642C31.2136 1.01855 30.9151 0.753296 30.517 0.753296H25.5415C25.5415 1.8143 25.5415 3.27317 25.5415 3.47211C25.5415 3.96945 25.1434 4.33417 24.679 4.43364C24.1815 4.53311 23.7171 4.13523 23.6176 3.67104C23.6176 3.57158 23.6176 3.57157 23.6176 3.47211C23.6176 3.1737 23.6176 1.91376 23.6176 0.753296H11.4108C11.4108 1.8143 11.4108 3.1737 11.4108 3.47211C11.4108 3.96945 11.0127 4.43364 10.5484 4.43364C10.0508 4.43364 9.58641 4.13523 9.4869 3.67104C9.4869 3.57158 9.4869 3.57157 9.4869 3.47211C9.4869 3.27317 9.4869 1.8143 9.4869 0.753296H4.51131C4.11327 0.753296 3.8479 1.0517 3.8479 1.41642L0.862549 33.1138C0.862549 33.5116 1.16108 33.8101 1.55913 33.8101H33.5024C33.9004 33.8101 34.199 33.5116 34.199 33.1138L31.2136 1.41642Z" fill="#989186"/>
</svg>
