<svg width="35" height="29" viewBox="0 0 35 29" fill="none" xmlns="http://www.w3.org/2000/svg">
<path d="M31.019 0.764457C31.019 0.421872 30.7205 0.193481 30.3225 0.193481H25.3469C25.3469 1.10704 25.3469 2.36319 25.3469 2.53448C25.3469 2.96271 24.9488 3.27675 24.4844 3.3624C23.9869 3.44804 23.5225 3.10546 23.423 2.70577C23.423 2.62013 23.423 2.62013 23.423 2.53448C23.423 2.27754 23.423 1.19269 23.423 0.193481H11.2162C11.2162 1.10704 11.2162 2.27754 11.2162 2.53448C11.2162 2.96271 10.8182 3.3624 10.3538 3.3624C9.85622 3.3624 9.39183 3.10546 9.29232 2.70577C9.29232 2.62013 9.29232 2.62013 9.29232 2.53448C9.29232 2.36319 9.29232 1.10704 9.29232 0.193481H4.31673C3.91868 0.193481 3.65332 0.45042 3.65332 0.764457L0.667969 28.0571C0.667969 28.3997 0.966504 28.6566 1.36455 28.6566H33.3078C33.7059 28.6566 34.0044 28.3997 34.0044 28.0571L31.019 0.764457Z" fill="#989186"/>
</svg>
