<svg width="35" height="29" viewBox="0 0 35 29" fill="none" xmlns="http://www.w3.org/2000/svg">
<path d="M31.0192 0.764457C31.0192 0.421872 30.7206 0.193481 30.3226 0.193481H25.347C25.347 1.10704 25.347 2.36319 25.347 2.53448C25.347 2.96271 24.949 3.27675 24.4846 3.3624C23.987 3.44804 23.5226 3.10546 23.4231 2.70577C23.4231 2.62013 23.4231 2.62013 23.4231 2.53448C23.4231 2.27754 23.4231 1.19269 23.4231 0.193481H11.2163C11.2163 1.10704 11.2163 2.27754 11.2163 2.53448C11.2163 2.96271 10.8183 3.3624 10.3539 3.3624C9.85634 3.3624 9.39195 3.10546 9.29244 2.70577C9.29244 2.62013 9.29244 2.62013 9.29244 2.53448C9.29244 2.36319 9.29244 1.10704 9.29244 0.193481H4.31685C3.91881 0.193481 3.65344 0.45042 3.65344 0.764457L0.668091 28.0571C0.668091 28.3997 0.966626 28.6566 1.36467 28.6566H33.3079C33.706 28.6566 34.0045 28.3997 34.0045 28.0571L31.0192 0.764457Z" fill="#989186"/>
</svg>
